<svg xmlns="http://www.w3.org/2000/svg" xmlns:xlink="http://www.w3.org/1999/xlink" contentStyleType="text/css" data-diagram-type="CLASS" height="1303px" preserveAspectRatio="none" style="width:1706px;height:1303px;background:#FFFFFF;" version="1.1" viewBox="0 0 1706 1303" width="1706px" zoomAndPan="magnify"><defs/><g><!--class GameStatus--><g class="entity" data-entity="GameStatus" data-source-line="11" data-uid="ent0002" id="entity_GameStatus"><rect fill="#F1F1F1" height="276.9219" rx="2.5" ry="2.5" style="stroke:#181818;stroke-width:0.5;" width="109.8135" x="357.5" y="1020"/><ellipse cx="372.5" cy="1036" fill="#EB937F" rx="11" ry="11" style="stroke:#181818;stroke-width:1;"/><path d="M371.3594,1036.7969 L371.3594,1039.2969 L375.6875,1039.2969 L375.6875,1038.375 Q375.6875,1037.7656 375.9219,1037.5 Q376.1719,1037.2344 376.5469,1037.2344 Q376.9219,1037.2344 377.1563,1037.5 Q377.3906,1037.7656 377.3906,1038.375 L377.3906,1041 L369.3906,1041 Q368.7656,1041 368.5,1040.7656 Q368.25,1040.5313 368.25,1040.1406 Q368.25,1039.7656 368.5156,1039.5313 Q368.7813,1039.2969 369.3906,1039.2969 L369.6563,1039.2969 L369.6563,1032.6406 L369.3906,1032.6406 Q368.7656,1032.6406 368.5,1032.4063 Q368.25,1032.1719 368.25,1031.7813 Q368.25,1031.4063 368.5,1031.1719 Q368.7656,1030.9375 369.3906,1030.9375 L377.0156,1030.9375 L377.0156,1033.5313 Q377.0156,1034.1406 376.7813,1034.4063 Q376.5625,1034.6563 376.1719,1034.6563 Q375.7969,1034.6563 375.5625,1034.4063 Q375.3281,1034.1406 375.3281,1033.5313 L375.3281,1032.6406 L371.3594,1032.6406 L371.3594,1035.0938 L372.8438,1035.0938 Q372.8438,1034.4375 372.9688,1034.25 Q373.2344,1033.8438 373.7031,1033.8438 Q374.0781,1033.8438 374.3125,1034.1094 Q374.5469,1034.3594 374.5469,1034.9688 L374.5469,1036.9375 Q374.5469,1037.4844 374.4219,1037.6719 Q374.1563,1038.0625 373.7031,1038.0625 Q373.2344,1038.0625 372.9688,1037.6563 Q372.8438,1037.4688 372.8438,1036.7969 L371.3594,1036.7969 Z " fill="#000000"/><text fill="#000000" font-family="sans-serif" font-size="14" lengthAdjust="spacing" textLength="77.8135" x="386.5" y="1041.7285">GameStatus</text><line style="stroke:#181818;stroke-width:0.5;" x1="358.5" x2="466.3135" y1="1052" y2="1052"/><text fill="#000000" font-family="sans-serif" font-size="14" lengthAdjust="spacing" textLength="62.248" x="363.5" y="1070.5332">Mastered,</text><text fill="#000000" font-family="sans-serif" font-size="14" lengthAdjust="spacing" textLength="71.5928" x="363.5" y="1088.1426">Completed,</text><text fill="#000000" font-family="sans-serif" font-size="14" lengthAdjust="spacing" textLength="56.8203" x="363.5" y="1105.752">Ongoing,</text><text fill="#000000" font-family="sans-serif" font-size="14" lengthAdjust="spacing" textLength="51.3721" x="363.5" y="1123.3613">Paused,</text><text fill="#000000" font-family="sans-serif" font-size="14" lengthAdjust="spacing" textLength="46.6963" x="363.5" y="1140.9707">Played,</text><text fill="#000000" font-family="sans-serif" font-size="14" lengthAdjust="spacing" textLength="47.4688" x="363.5" y="1158.5801">Replay,</text><text fill="#000000" font-family="sans-serif" font-size="14" lengthAdjust="spacing" textLength="70.041" x="363.5" y="1176.1895">Unfinished,</text><text fill="#000000" font-family="sans-serif" font-size="14" lengthAdjust="spacing" textLength="49.0205" x="363.5" y="1193.7988">Retired,</text><text fill="#000000" font-family="sans-serif" font-size="14" lengthAdjust="spacing" textLength="35.7861" x="363.5" y="1211.4082">Tried,</text><text fill="#000000" font-family="sans-serif" font-size="14" lengthAdjust="spacing" textLength="57.5928" x="363.5" y="1229.0176">Dropped,</text><text fill="#000000" font-family="sans-serif" font-size="14" lengthAdjust="spacing" textLength="79.3926" x="363.5" y="1246.627">Ragequitted,</text><text fill="#000000" font-family="sans-serif" font-size="14" lengthAdjust="spacing" textLength="63.041" x="363.5" y="1264.2363">Unplayed,</text><text fill="#000000" font-family="sans-serif" font-size="14" lengthAdjust="spacing" textLength="37.3584" x="363.5" y="1281.8457">None,</text><line style="stroke:#181818;stroke-width:0.5;" x1="358.5" x2="466.3135" y1="1288.9219" y2="1288.9219"/></g><!--class Ownership--><g class="entity" data-entity="Ownership" data-source-line="26" data-uid="ent0003" id="entity_Ownership"><rect fill="#F1F1F1" height="188.875" rx="2.5" ry="2.5" style="stroke:#181818;stroke-width:0.5;" width="115.4688" x="503" y="1064"/><ellipse cx="525.4483" cy="1080" fill="#EB937F" rx="11" ry="11" style="stroke:#181818;stroke-width:1;"/><path d="M524.3077,1080.7969 L524.3077,1083.2969 L528.6358,1083.2969 L528.6358,1082.375 Q528.6358,1081.7656 528.8702,1081.5 Q529.1202,1081.2344 529.4952,1081.2344 Q529.8702,1081.2344 530.1045,1081.5 Q530.3389,1081.7656 530.3389,1082.375 L530.3389,1085 L522.3389,1085 Q521.7139,1085 521.4483,1084.7656 Q521.1983,1084.5313 521.1983,1084.1406 Q521.1983,1083.7656 521.4639,1083.5313 Q521.7295,1083.2969 522.3389,1083.2969 L522.6045,1083.2969 L522.6045,1076.6406 L522.3389,1076.6406 Q521.7139,1076.6406 521.4483,1076.4063 Q521.1983,1076.1719 521.1983,1075.7813 Q521.1983,1075.4063 521.4483,1075.1719 Q521.7139,1074.9375 522.3389,1074.9375 L529.9639,1074.9375 L529.9639,1077.5313 Q529.9639,1078.1406 529.7295,1078.4063 Q529.5108,1078.6563 529.1202,1078.6563 Q528.7452,1078.6563 528.5108,1078.4063 Q528.2764,1078.1406 528.2764,1077.5313 L528.2764,1076.6406 L524.3077,1076.6406 L524.3077,1079.0938 L525.792,1079.0938 Q525.792,1078.4375 525.917,1078.25 Q526.1827,1077.8438 526.6514,1077.8438 Q527.0264,1077.8438 527.2608,1078.1094 Q527.4952,1078.3594 527.4952,1078.9688 L527.4952,1080.9375 Q527.4952,1081.4844 527.3702,1081.6719 Q527.1045,1082.0625 526.6514,1082.0625 Q526.1827,1082.0625 525.917,1081.6563 Q525.792,1081.4688 525.792,1080.7969 L524.3077,1080.7969 Z " fill="#000000"/><text fill="#000000" font-family="sans-serif" font-size="14" lengthAdjust="spacing" textLength="66.917" x="541.1035" y="1085.7285">Ownership</text><line style="stroke:#181818;stroke-width:0.5;" x1="504" x2="617.4688" y1="1096" y2="1096"/><text fill="#000000" font-family="sans-serif" font-size="14" lengthAdjust="spacing" textLength="52.1104" x="509" y="1114.5332">Wishlist,</text><text fill="#000000" font-family="sans-serif" font-size="14" lengthAdjust="spacing" textLength="48.248" x="509" y="1132.1426">Owned,</text><text fill="#000000" font-family="sans-serif" font-size="14" lengthAdjust="spacing" textLength="70.8271" x="509" y="1149.752">Household,</text><text fill="#000000" font-family="sans-serif" font-size="14" lengthAdjust="spacing" textLength="49.0342" x="509" y="1167.3613">Shared,</text><text fill="#000000" font-family="sans-serif" font-size="14" lengthAdjust="spacing" textLength="80.9307" x="509" y="1184.9707">Subscription,</text><text fill="#000000" font-family="sans-serif" font-size="14" lengthAdjust="spacing" textLength="63.8066" x="509" y="1202.5801">Borrowed,</text><text fill="#000000" font-family="sans-serif" font-size="14" lengthAdjust="spacing" textLength="43.5654" x="509" y="1220.1895">TriedIt,</text><text fill="#000000" font-family="sans-serif" font-size="14" lengthAdjust="spacing" textLength="103.4688" x="509" y="1237.7988">FormerlyOwned,</text><line style="stroke:#181818;stroke-width:0.5;" x1="504" x2="617.4688" y1="1244.875" y2="1244.875"/></g><!--class CustomFolder--><g class="entity" data-entity="CustomFolder" data-source-line="36" data-uid="ent0004" id="entity_CustomFolder"><rect fill="#F1F1F1" height="118.4375" rx="2.5" ry="2.5" style="stroke:#181818;stroke-width:0.5;" width="278.916" x="7" y="591"/><ellipse cx="98.2495" cy="607" fill="#ADD1B2" rx="11" ry="11" style="stroke:#181818;stroke-width:1;"/><path d="M101.0151,602.875 Q101.1714,602.6563 101.3589,602.5469 Q101.5464,602.4375 101.7651,602.4375 Q102.1401,602.4375 102.3745,602.7031 Q102.6089,602.9531 102.6089,603.5625 L102.6089,605.0156 Q102.6089,605.625 102.3745,605.8906 Q102.1401,606.1563 101.7651,606.1563 Q101.4214,606.1563 101.2183,605.9531 Q101.0151,605.7656 100.9058,605.25 Q100.8589,604.8906 100.6714,604.7031 Q100.3433,604.3281 99.7339,604.1094 Q99.1245,603.8906 98.4995,603.8906 Q97.7339,603.8906 97.0933,604.2188 Q96.4683,604.5469 95.9683,605.2969 Q95.4839,606.0469 95.4839,607.0781 L95.4839,608.1719 Q95.4839,609.4063 96.3745,610.2344 Q97.2651,611.0469 98.8589,611.0469 Q99.7964,611.0469 100.4526,610.7969 Q100.8433,610.6406 101.2651,610.2031 Q101.5308,609.9375 101.6714,609.8594 Q101.8276,609.7813 102.0308,609.7813 Q102.3589,609.7813 102.6089,610.0469 Q102.8745,610.2969 102.8745,610.6406 Q102.8745,610.9844 102.5308,611.3906 Q102.0308,611.9688 101.2339,612.2969 Q100.1558,612.75 98.8589,612.75 Q97.3433,612.75 96.1401,612.125 Q95.1558,611.625 94.4683,610.5625 Q93.7808,609.4844 93.7808,608.2031 L93.7808,607.0469 Q93.7808,605.7188 94.3901,604.5781 Q95.0151,603.4219 96.1089,602.8125 Q97.2026,602.1875 98.437,602.1875 Q99.1714,602.1875 99.812,602.3594 Q100.4683,602.5156 101.0151,602.875 Z " fill="#000000"/><text fill="#000000" font-family="sans-serif" font-size="14" lengthAdjust="spacing" textLength="87.917" x="118.7495" y="612.7285">CustomFolder</text><line style="stroke:#181818;stroke-width:0.5;" x1="8" x2="284.916" y1="623" y2="623"/><ellipse cx="18" cy="637.3047" fill="none" rx="3" ry="3" style="stroke:#038048;stroke-width:1;"/><text fill="#000000" font-family="sans-serif" font-size="14" lengthAdjust="spacing" textLength="154.875" x="27" y="641.5332">FolderId : int &#171;get&#187; &#171;set&#187;</text><ellipse cx="18" cy="654.9141" fill="none" rx="3" ry="3" style="stroke:#038048;stroke-width:1;"/><text fill="#000000" font-family="sans-serif" font-size="14" lengthAdjust="spacing" textLength="199.9922" x="27" y="659.1426">FolderName : string &#171;get&#187; &#171;set&#187;</text><ellipse cx="18" cy="672.5234" fill="none" rx="3" ry="3" style="stroke:#038048;stroke-width:1;"/><text fill="#000000" font-family="sans-serif" font-size="14" lengthAdjust="spacing" textLength="249.792" x="27" y="676.752">CreatedAt : DateTimeOffset &#171;get&#187; &#171;set&#187;</text><ellipse cx="18" cy="690.1328" fill="none" rx="3" ry="3" style="stroke:#038048;stroke-width:1;"/><text fill="#000000" font-family="sans-serif" font-size="14" lengthAdjust="spacing" textLength="252.916" x="27" y="694.3613">UpdatedAt : DateTimeOffset &#171;get&#187; &#171;set&#187;</text><line style="stroke:#181818;stroke-width:0.5;" x1="8" x2="284.916" y1="701.4375" y2="701.4375"/></g><!--class VideogameUser--><g class="entity" data-entity="VideogameUser" data-source-line="42" data-uid="ent0005" id="entity_VideogameUser"><rect fill="#F1F1F1" height="153.6563" rx="2.5" ry="2.5" style="stroke:#181818;stroke-width:0.5;" width="258.6885" x="357" y="805"/><ellipse cx="431.9014" cy="821" fill="#ADD1B2" rx="11" ry="11" style="stroke:#181818;stroke-width:1;"/><path d="M434.667,816.875 Q434.8232,816.6563 435.0107,816.5469 Q435.1982,816.4375 435.417,816.4375 Q435.792,816.4375 436.0264,816.7031 Q436.2607,816.9531 436.2607,817.5625 L436.2607,819.0156 Q436.2607,819.625 436.0264,819.8906 Q435.792,820.1563 435.417,820.1563 Q435.0732,820.1563 434.8701,819.9531 Q434.667,819.7656 434.5576,819.25 Q434.5107,818.8906 434.3232,818.7031 Q433.9951,818.3281 433.3857,818.1094 Q432.7764,817.8906 432.1514,817.8906 Q431.3857,817.8906 430.7451,818.2188 Q430.1201,818.5469 429.6201,819.2969 Q429.1357,820.0469 429.1357,821.0781 L429.1357,822.1719 Q429.1357,823.4063 430.0264,824.2344 Q430.917,825.0469 432.5107,825.0469 Q433.4482,825.0469 434.1045,824.7969 Q434.4951,824.6406 434.917,824.2031 Q435.1826,823.9375 435.3232,823.8594 Q435.4795,823.7813 435.6826,823.7813 Q436.0107,823.7813 436.2607,824.0469 Q436.5264,824.2969 436.5264,824.6406 Q436.5264,824.9844 436.1826,825.3906 Q435.6826,825.9688 434.8857,826.2969 Q433.8076,826.75 432.5107,826.75 Q430.9951,826.75 429.792,826.125 Q428.8076,825.625 428.1201,824.5625 Q427.4326,823.4844 427.4326,822.2031 L427.4326,821.0469 Q427.4326,819.7188 428.042,818.5781 Q428.667,817.4219 429.7607,816.8125 Q430.8545,816.1875 432.0889,816.1875 Q432.8232,816.1875 433.4639,816.3594 Q434.1201,816.5156 434.667,816.875 Z " fill="#000000"/><text fill="#000000" font-family="sans-serif" font-size="14" lengthAdjust="spacing" textLength="100.3857" x="452.4014" y="826.7285">VideogameUser</text><line style="stroke:#181818;stroke-width:0.5;" x1="358" x2="614.6885" y1="837" y2="837"/><ellipse cx="368" cy="851.3047" fill="none" rx="3" ry="3" style="stroke:#038048;stroke-width:1;"/><text fill="#000000" font-family="sans-serif" font-size="14" lengthAdjust="spacing" textLength="215.5781" x="377" y="855.5332">VideogameUserId : int &#171;get&#187; &#171;set&#187;</text><ellipse cx="368" cy="868.9141" fill="none" rx="3" ry="3" style="stroke:#038048;stroke-width:1;"/><text fill="#000000" font-family="sans-serif" font-size="14" lengthAdjust="spacing" textLength="186.0195" x="377" y="873.1426">VideogameId : int &#171;get&#187; &#171;set&#187;</text><ellipse cx="368" cy="886.5234" fill="none" rx="3" ry="3" style="stroke:#038048;stroke-width:1;"/><text fill="#000000" font-family="sans-serif" font-size="14" lengthAdjust="spacing" textLength="164.1992" x="377" y="890.752">UserId : string &#171;get&#187; &#171;set&#187;</text><ellipse cx="368" cy="904.1328" fill="none" rx="3" ry="3" style="stroke:#038048;stroke-width:1;"/><text fill="#000000" font-family="sans-serif" font-size="14" lengthAdjust="spacing" textLength="232.6885" x="377" y="908.3613">HoursPlayed : TimeSpan &#171;get&#187; &#171;set&#187;</text><ellipse cx="368" cy="921.7422" fill="none" rx="3" ry="3" style="stroke:#038048;stroke-width:1;"/><text fill="#000000" font-family="sans-serif" font-size="14" lengthAdjust="spacing" textLength="232.3262" x="377" y="925.9707">BetaTested : bool &#171;get&#187; &#171;set&#187; = false</text><ellipse cx="368" cy="939.3516" fill="none" rx="3" ry="3" style="stroke:#038048;stroke-width:1;"/><text fill="#000000" font-family="sans-serif" font-size="14" lengthAdjust="spacing" textLength="209.3301" x="377" y="943.5801">TimesCompleted : int &#171;get&#187; &#171;set&#187;</text><line style="stroke:#181818;stroke-width:0.5;" x1="358" x2="614.6885" y1="950.6563" y2="950.6563"/></g><!--class GamingConsole--><g class="entity" data-entity="GamingConsole" data-source-line="43" data-uid="ent0007" id="entity_GamingConsole"><rect fill="#F1F1F1" height="100.8281" rx="2.5" ry="2.5" style="stroke:#181818;stroke-width:0.5;" width="254.0264" x="594.5" y="385.5"/><ellipse cx="667.0703" cy="401.5" fill="#ADD1B2" rx="11" ry="11" style="stroke:#181818;stroke-width:1;"/><path d="M669.8359,397.375 Q669.9922,397.1563 670.1797,397.0469 Q670.3672,396.9375 670.5859,396.9375 Q670.9609,396.9375 671.1953,397.2031 Q671.4297,397.4531 671.4297,398.0625 L671.4297,399.5156 Q671.4297,400.125 671.1953,400.3906 Q670.9609,400.6563 670.5859,400.6563 Q670.2422,400.6563 670.0391,400.4531 Q669.8359,400.2656 669.7266,399.75 Q669.6797,399.3906 669.4922,399.2031 Q669.1641,398.8281 668.5547,398.6094 Q667.9453,398.3906 667.3203,398.3906 Q666.5547,398.3906 665.9141,398.7188 Q665.2891,399.0469 664.7891,399.7969 Q664.3047,400.5469 664.3047,401.5781 L664.3047,402.6719 Q664.3047,403.9063 665.1953,404.7344 Q666.0859,405.5469 667.6797,405.5469 Q668.6172,405.5469 669.2734,405.2969 Q669.6641,405.1406 670.0859,404.7031 Q670.3516,404.4375 670.4922,404.3594 Q670.6484,404.2813 670.8516,404.2813 Q671.1797,404.2813 671.4297,404.5469 Q671.6953,404.7969 671.6953,405.1406 Q671.6953,405.4844 671.3516,405.8906 Q670.8516,406.4688 670.0547,406.7969 Q668.9766,407.25 667.6797,407.25 Q666.1641,407.25 664.9609,406.625 Q663.9766,406.125 663.2891,405.0625 Q662.6016,403.9844 662.6016,402.7031 L662.6016,401.5469 Q662.6016,400.2188 663.2109,399.0781 Q663.8359,397.9219 664.9297,397.3125 Q666.0234,396.6875 667.2578,396.6875 Q667.9922,396.6875 668.6328,396.8594 Q669.2891,397.0156 669.8359,397.375 Z " fill="#000000"/><text fill="#000000" font-family="sans-serif" font-size="14" lengthAdjust="spacing" textLength="100.3857" x="687.5703" y="407.2285">GamingConsole</text><line style="stroke:#181818;stroke-width:0.5;" x1="595.5" x2="847.5264" y1="417.5" y2="417.5"/><ellipse cx="605.5" cy="431.8047" fill="none" rx="3" ry="3" style="stroke:#038048;stroke-width:1;"/><text fill="#000000" font-family="sans-serif" font-size="14" lengthAdjust="spacing" textLength="166.5576" x="614.5" y="436.0332">ConsoleId : int &#171;get&#187; &#171;set&#187;</text><ellipse cx="605.5" cy="449.4141" fill="none" rx="3" ry="3" style="stroke:#038048;stroke-width:1;"/><text fill="#000000" font-family="sans-serif" font-size="14" lengthAdjust="spacing" textLength="211.6748" x="614.5" y="453.6426">ConsoleName : string &#171;get&#187; &#171;set&#187;</text><ellipse cx="605.5" cy="467.0234" fill="none" rx="3" ry="3" style="stroke:#038048;stroke-width:1;"/><text fill="#000000" font-family="sans-serif" font-size="14" lengthAdjust="spacing" textLength="228.0264" x="614.5" y="471.252">ReleaseDate : DateOnly &#171;get&#187; &#171;set&#187;</text><line style="stroke:#181818;stroke-width:0.5;" x1="595.5" x2="847.5264" y1="478.3281" y2="478.3281"/></g><!--class Videogame--><g class="entity" data-entity="Videogame" data-source-line="48" data-uid="ent0008" id="entity_Videogame"><rect fill="#F1F1F1" height="153.6563" rx="2.5" ry="2.5" style="stroke:#181818;stroke-width:0.5;" width="254.0264" x="835.5" y="573"/><ellipse cx="922.8496" cy="589" fill="#ADD1B2" rx="11" ry="11" style="stroke:#181818;stroke-width:1;"/><path d="M925.6152,584.875 Q925.7715,584.6563 925.959,584.5469 Q926.1465,584.4375 926.3652,584.4375 Q926.7402,584.4375 926.9746,584.7031 Q927.209,584.9531 927.209,585.5625 L927.209,587.0156 Q927.209,587.625 926.9746,587.8906 Q926.7402,588.1563 926.3652,588.1563 Q926.0215,588.1563 925.8184,587.9531 Q925.6152,587.7656 925.5059,587.25 Q925.459,586.8906 925.2715,586.7031 Q924.9434,586.3281 924.334,586.1094 Q923.7246,585.8906 923.0996,585.8906 Q922.334,585.8906 921.6934,586.2188 Q921.0684,586.5469 920.5684,587.2969 Q920.084,588.0469 920.084,589.0781 L920.084,590.1719 Q920.084,591.4063 920.9746,592.2344 Q921.8652,593.0469 923.459,593.0469 Q924.3965,593.0469 925.0527,592.7969 Q925.4434,592.6406 925.8652,592.2031 Q926.1309,591.9375 926.2715,591.8594 Q926.4277,591.7813 926.6309,591.7813 Q926.959,591.7813 927.209,592.0469 Q927.4746,592.2969 927.4746,592.6406 Q927.4746,592.9844 927.1309,593.3906 Q926.6309,593.9688 925.834,594.2969 Q924.7559,594.75 923.459,594.75 Q921.9434,594.75 920.7402,594.125 Q919.7559,593.625 919.0684,592.5625 Q918.3809,591.4844 918.3809,590.2031 L918.3809,589.0469 Q918.3809,587.7188 918.9902,586.5781 Q919.6152,585.4219 920.709,584.8125 Q921.8027,584.1875 923.0371,584.1875 Q923.7715,584.1875 924.4121,584.3594 Q925.0684,584.5156 925.6152,584.875 Z " fill="#000000"/><text fill="#000000" font-family="sans-serif" font-size="14" lengthAdjust="spacing" textLength="70.8271" x="943.3496" y="594.7285">Videogame</text><line style="stroke:#181818;stroke-width:0.5;" x1="836.5" x2="1088.5264" y1="605" y2="605"/><ellipse cx="846.5" cy="619.3047" fill="none" rx="3" ry="3" style="stroke:#038048;stroke-width:1;"/><text fill="#000000" font-family="sans-serif" font-size="14" lengthAdjust="spacing" textLength="153.3164" x="855.5" y="623.5332">GameId : int &#171;get&#187; &#171;set&#187;</text><ellipse cx="846.5" cy="636.9141" fill="none" rx="3" ry="3" style="stroke:#038048;stroke-width:1;"/><text fill="#000000" font-family="sans-serif" font-size="14" lengthAdjust="spacing" textLength="198.4336" x="855.5" y="641.1426">GameName : string &#171;get&#187; &#171;set&#187;</text><ellipse cx="846.5" cy="654.5234" fill="none" rx="3" ry="3" style="stroke:#038048;stroke-width:1;"/><text fill="#000000" font-family="sans-serif" font-size="14" lengthAdjust="spacing" textLength="172.7578" x="855.5" y="658.752">MinPlayers : int &#171;get&#187; &#171;set&#187;</text><ellipse cx="846.5" cy="672.1328" fill="none" rx="3" ry="3" style="stroke:#038048;stroke-width:1;"/><text fill="#000000" font-family="sans-serif" font-size="14" lengthAdjust="spacing" textLength="176.6475" x="855.5" y="676.3613">MaxPlayers : int &#171;get&#187; &#171;set&#187;</text><ellipse cx="846.5" cy="689.7422" fill="none" rx="3" ry="3" style="stroke:#038048;stroke-width:1;"/><text fill="#000000" font-family="sans-serif" font-size="14" lengthAdjust="spacing" textLength="192.2197" x="855.5" y="693.9707">EarlyAccess : bool &#171;get&#187; &#171;set&#187;</text><ellipse cx="846.5" cy="707.3516" fill="none" rx="3" ry="3" style="stroke:#038048;stroke-width:1;"/><text fill="#000000" font-family="sans-serif" font-size="14" lengthAdjust="spacing" textLength="228.0264" x="855.5" y="711.5801">ReleaseDate : DateOnly &#171;get&#187; &#171;set&#187;</text><line style="stroke:#181818;stroke-width:0.5;" x1="836.5" x2="1088.5264" y1="718.6563" y2="718.6563"/></g><!--class Review--><g class="entity" data-entity="Review" data-source-line="49" data-uid="ent0010" id="entity_Review"><rect fill="#F1F1F1" height="136.0469" rx="2.5" ry="2.5" style="stroke:#181818;stroke-width:0.5;" width="261.0264" x="487" y="582"/><ellipse cx="590.3115" cy="598" fill="#ADD1B2" rx="11" ry="11" style="stroke:#181818;stroke-width:1;"/><path d="M593.0771,593.875 Q593.2334,593.6563 593.4209,593.5469 Q593.6084,593.4375 593.8271,593.4375 Q594.2021,593.4375 594.4365,593.7031 Q594.6709,593.9531 594.6709,594.5625 L594.6709,596.0156 Q594.6709,596.625 594.4365,596.8906 Q594.2021,597.1563 593.8271,597.1563 Q593.4834,597.1563 593.2803,596.9531 Q593.0771,596.7656 592.9678,596.25 Q592.9209,595.8906 592.7334,595.7031 Q592.4053,595.3281 591.7959,595.1094 Q591.1865,594.8906 590.5615,594.8906 Q589.7959,594.8906 589.1553,595.2188 Q588.5303,595.5469 588.0303,596.2969 Q587.5459,597.0469 587.5459,598.0781 L587.5459,599.1719 Q587.5459,600.4063 588.4365,601.2344 Q589.3271,602.0469 590.9209,602.0469 Q591.8584,602.0469 592.5146,601.7969 Q592.9053,601.6406 593.3271,601.2031 Q593.5928,600.9375 593.7334,600.8594 Q593.8896,600.7813 594.0928,600.7813 Q594.4209,600.7813 594.6709,601.0469 Q594.9365,601.2969 594.9365,601.6406 Q594.9365,601.9844 594.5928,602.3906 Q594.0928,602.9688 593.2959,603.2969 Q592.2178,603.75 590.9209,603.75 Q589.4053,603.75 588.2021,603.125 Q587.2178,602.625 586.5303,601.5625 Q585.8428,600.4844 585.8428,599.2031 L585.8428,598.0469 Q585.8428,596.7188 586.4521,595.5781 Q587.0771,594.4219 588.1709,593.8125 Q589.2646,593.1875 590.499,593.1875 Q591.2334,593.1875 591.874,593.3594 Q592.5303,593.5156 593.0771,593.875 Z " fill="#000000"/><text fill="#000000" font-family="sans-serif" font-size="14" lengthAdjust="spacing" textLength="45.9033" x="610.8115" y="603.7285">Review</text><line style="stroke:#181818;stroke-width:0.5;" x1="488" x2="747.0264" y1="614" y2="614"/><ellipse cx="498" cy="628.3047" fill="none" rx="3" ry="3" style="stroke:#038048;stroke-width:1;"/><text fill="#000000" font-family="sans-serif" font-size="14" lengthAdjust="spacing" textLength="161.0957" x="507" y="632.5332">ReviewId : int &#171;get&#187; &#171;set&#187;</text><ellipse cx="498" cy="645.9141" fill="none" rx="3" ry="3" style="stroke:#038048;stroke-width:1;"/><text fill="#000000" font-family="sans-serif" font-size="14" lengthAdjust="spacing" textLength="159.5713" x="507" y="650.1426">Vote : double &#171;get&#187; &#171;set&#187;</text><ellipse cx="498" cy="663.5234" fill="none" rx="3" ry="3" style="stroke:#038048;stroke-width:1;"/><text fill="#000000" font-family="sans-serif" font-size="14" lengthAdjust="spacing" textLength="195.3164" x="507" y="667.752">ReviewTitle : string &#171;get&#187; &#171;set&#187;</text><ellipse cx="498" cy="681.1328" fill="none" rx="3" ry="3" style="stroke:#038048;stroke-width:1;"/><text fill="#000000" font-family="sans-serif" font-size="14" lengthAdjust="spacing" textLength="217.9023" x="507" y="685.3613">ReviewContent : string &#171;get&#187; &#171;set&#187;</text><ellipse cx="498" cy="698.7422" fill="none" rx="3" ry="3" style="stroke:#038048;stroke-width:1;"/><text fill="#000000" font-family="sans-serif" font-size="14" lengthAdjust="spacing" textLength="235.0264" x="507" y="702.9707">VideogameUserId : string &#171;get&#187; &#171;set&#187;</text><line style="stroke:#181818;stroke-width:0.5;" x1="488" x2="747.0264" y1="710.0469" y2="710.0469"/></g><!--class User--><g class="entity" data-entity="User" data-source-line="57" data-uid="ent0012" id="entity_User"><rect fill="#F1F1F1" height="118.4375" rx="2.5" ry="2.5" style="stroke:#181818;stroke-width:0.5;" width="278.916" x="209" y="377"/><ellipse cx="329.4287" cy="393" fill="#ADD1B2" rx="11" ry="11" style="stroke:#181818;stroke-width:1;"/><path d="M332.1943,388.875 Q332.3506,388.6563 332.5381,388.5469 Q332.7256,388.4375 332.9443,388.4375 Q333.3193,388.4375 333.5537,388.7031 Q333.7881,388.9531 333.7881,389.5625 L333.7881,391.0156 Q333.7881,391.625 333.5537,391.8906 Q333.3193,392.1563 332.9443,392.1563 Q332.6006,392.1563 332.3975,391.9531 Q332.1943,391.7656 332.085,391.25 Q332.0381,390.8906 331.8506,390.7031 Q331.5225,390.3281 330.9131,390.1094 Q330.3037,389.8906 329.6787,389.8906 Q328.9131,389.8906 328.2725,390.2188 Q327.6475,390.5469 327.1475,391.2969 Q326.6631,392.0469 326.6631,393.0781 L326.6631,394.1719 Q326.6631,395.4063 327.5537,396.2344 Q328.4443,397.0469 330.0381,397.0469 Q330.9756,397.0469 331.6318,396.7969 Q332.0225,396.6406 332.4443,396.2031 Q332.71,395.9375 332.8506,395.8594 Q333.0068,395.7813 333.21,395.7813 Q333.5381,395.7813 333.7881,396.0469 Q334.0537,396.2969 334.0537,396.6406 Q334.0537,396.9844 333.71,397.3906 Q333.21,397.9688 332.4131,398.2969 Q331.335,398.75 330.0381,398.75 Q328.5225,398.75 327.3193,398.125 Q326.335,397.625 325.6475,396.5625 Q324.96,395.4844 324.96,394.2031 L324.96,393.0469 Q324.96,391.7188 325.5693,390.5781 Q326.1943,389.4219 327.2881,388.8125 Q328.3818,388.1875 329.6162,388.1875 Q330.3506,388.1875 330.9912,388.3594 Q331.6475,388.5156 332.1943,388.875 Z " fill="#000000"/><text fill="#000000" font-family="sans-serif" font-size="14" lengthAdjust="spacing" textLength="29.5586" x="349.9287" y="398.7285">User</text><line style="stroke:#181818;stroke-width:0.5;" x1="210" x2="486.916" y1="409" y2="409"/><ellipse cx="220" cy="423.3047" fill="none" rx="3" ry="3" style="stroke:#038048;stroke-width:1;"/><text fill="#000000" font-family="sans-serif" font-size="14" lengthAdjust="spacing" textLength="163.4199" x="229" y="427.5332">UserId : string &#171;get&#187; &#171;init&#187;</text><ellipse cx="220" cy="440.9141" fill="none" rx="3" ry="3" style="stroke:#038048;stroke-width:1;"/><text fill="#000000" font-family="sans-serif" font-size="14" lengthAdjust="spacing" textLength="189.8682" x="229" y="445.1426">UserName : string &#171;get&#187; &#171;set&#187;</text><ellipse cx="220" cy="458.5234" fill="none" rx="3" ry="3" style="stroke:#038048;stroke-width:1;"/><text fill="#000000" font-family="sans-serif" font-size="14" lengthAdjust="spacing" textLength="249.792" x="229" y="462.752">CreatedAt : DateTimeOffset &#171;get&#187; &#171;set&#187;</text><ellipse cx="220" cy="476.1328" fill="none" rx="3" ry="3" style="stroke:#038048;stroke-width:1;"/><text fill="#000000" font-family="sans-serif" font-size="14" lengthAdjust="spacing" textLength="252.916" x="229" y="480.3613">UpdatedAt : DateTimeOffset &#171;get&#187; &#171;set&#187;</text><line style="stroke:#181818;stroke-width:0.5;" x1="210" x2="486.916" y1="487.4375" y2="487.4375"/></g><!--class Company--><g class="entity" data-entity="Company" data-source-line="64" data-uid="ent0014" id="entity_Company"><rect fill="#F1F1F1" height="83.2188" rx="2.5" ry="2.5" style="stroke:#181818;stroke-width:0.5;" width="246.2266" x="786.5" y="7"/><ellipse cx="875.4048" cy="23" fill="#A9DCDF" rx="11" ry="11" style="stroke:#181818;stroke-width:1;"/><path d="M877.5923,24.7656 L873.4517,24.7656 L873.0298,25.7969 L873.4517,25.7969 Q874.061,25.7969 874.3267,26.0313 Q874.5923,26.2656 874.5923,26.6563 Q874.5923,27.0313 874.3267,27.2656 Q874.061,27.5 873.4517,27.5 L871.1548,27.5 Q870.5454,27.5 870.2954,27.2656 Q870.0298,27.0313 870.0298,26.6406 Q870.0298,26.2656 870.311,26.0313 Q870.5767,25.7813 871.2017,25.7969 L873.8735,19.1406 L872.7642,19.1406 Q872.1548,19.1406 871.8892,18.9063 Q871.6235,18.6719 871.6235,18.2813 Q871.6235,17.9063 871.8892,17.6719 Q872.1548,17.4375 872.7642,17.4375 L876.436,17.4375 L879.8267,25.7969 Q880.4204,25.7969 880.6079,25.9375 Q880.9985,26.2031 880.9985,26.6563 Q880.9985,27.0313 880.7329,27.2656 Q880.4829,27.5 879.8735,27.5 L877.5767,27.5 Q876.9673,27.5 876.7017,27.2656 Q876.436,27.0313 876.436,26.6406 Q876.436,26.2656 876.7017,26.0313 Q876.9673,25.7969 877.5767,25.7969 L877.9985,25.7969 L877.5923,24.7656 Z M876.8735,23.0625 L875.5142,19.6875 L874.1392,23.0625 L876.8735,23.0625 Z " fill="#000000"/><text fill="#000000" font-family="sans-serif" font-size="14" font-style="italic" lengthAdjust="spacing" textLength="59.917" x="895.9048" y="28.7285">Company</text><line style="stroke:#181818;stroke-width:0.5;" x1="787.5" x2="1031.7266" y1="39" y2="39"/><ellipse cx="797.5" cy="53.3047" fill="none" rx="3" ry="3" style="stroke:#038048;stroke-width:1;"/><text fill="#000000" font-family="sans-serif" font-size="14" lengthAdjust="spacing" textLength="175.1094" x="806.5" y="57.5332">CompanyId : int &#171;get&#187; &#171;set&#187;</text><ellipse cx="797.5" cy="70.9141" fill="none" rx="3" ry="3" style="stroke:#038048;stroke-width:1;"/><text fill="#000000" font-family="sans-serif" font-size="14" lengthAdjust="spacing" textLength="220.2266" x="806.5" y="75.1426">CompanyName : string &#171;get&#187; &#171;set&#187;</text><line style="stroke:#181818;stroke-width:0.5;" x1="787.5" x2="1031.7266" y1="82.2188" y2="82.2188"/></g><!--class Developer--><g class="entity" data-entity="Developer" data-source-line="68" data-uid="ent0015" id="entity_Developer"><rect fill="#F1F1F1" height="83.2188" rx="2.5" ry="2.5" style="stroke:#181818;stroke-width:0.5;" width="246.2266" x="1377.5" y="264"/><ellipse cx="1464.4565" cy="280" fill="#ADD1B2" rx="11" ry="11" style="stroke:#181818;stroke-width:1;"/><path d="M1467.2222,275.875 Q1467.3784,275.6563 1467.5659,275.5469 Q1467.7534,275.4375 1467.9722,275.4375 Q1468.3472,275.4375 1468.5815,275.7031 Q1468.8159,275.9531 1468.8159,276.5625 L1468.8159,278.0156 Q1468.8159,278.625 1468.5815,278.8906 Q1468.3472,279.1563 1467.9722,279.1563 Q1467.6284,279.1563 1467.4253,278.9531 Q1467.2222,278.7656 1467.1128,278.25 Q1467.0659,277.8906 1466.8784,277.7031 Q1466.5503,277.3281 1465.9409,277.1094 Q1465.3315,276.8906 1464.7065,276.8906 Q1463.9409,276.8906 1463.3003,277.2188 Q1462.6753,277.5469 1462.1753,278.2969 Q1461.6909,279.0469 1461.6909,280.0781 L1461.6909,281.1719 Q1461.6909,282.4063 1462.5815,283.2344 Q1463.4722,284.0469 1465.0659,284.0469 Q1466.0034,284.0469 1466.6597,283.7969 Q1467.0503,283.6406 1467.4722,283.2031 Q1467.7378,282.9375 1467.8784,282.8594 Q1468.0347,282.7813 1468.2378,282.7813 Q1468.5659,282.7813 1468.8159,283.0469 Q1469.0815,283.2969 1469.0815,283.6406 Q1469.0815,283.9844 1468.7378,284.3906 Q1468.2378,284.9688 1467.4409,285.2969 Q1466.3628,285.75 1465.0659,285.75 Q1463.5503,285.75 1462.3472,285.125 Q1461.3628,284.625 1460.6753,283.5625 Q1459.9878,282.4844 1459.9878,281.2031 L1459.9878,280.0469 Q1459.9878,278.7188 1460.5972,277.5781 Q1461.2222,276.4219 1462.3159,275.8125 Q1463.4097,275.1875 1464.644,275.1875 Q1465.3784,275.1875 1466.019,275.3594 Q1466.6753,275.5156 1467.2222,275.875 Z " fill="#000000"/><text fill="#000000" font-family="sans-serif" font-size="14" lengthAdjust="spacing" textLength="63.8135" x="1484.9565" y="285.7285">Developer</text><line style="stroke:#181818;stroke-width:0.5;" x1="1378.5" x2="1622.7266" y1="296" y2="296"/><ellipse cx="1388.5" cy="310.3047" fill="none" rx="3" ry="3" style="stroke:#038048;stroke-width:1;"/><text fill="#000000" font-family="sans-serif" font-size="14" lengthAdjust="spacing" textLength="175.1094" x="1397.5" y="314.5332">CompanyId : int &#171;get&#187; &#171;set&#187;</text><ellipse cx="1388.5" cy="327.9141" fill="none" rx="3" ry="3" style="stroke:#038048;stroke-width:1;"/><text fill="#000000" font-family="sans-serif" font-size="14" lengthAdjust="spacing" textLength="220.2266" x="1397.5" y="332.1426">CompanyName : string &#171;get&#187; &#171;set&#187;</text><line style="stroke:#181818;stroke-width:0.5;" x1="1378.5" x2="1622.7266" y1="339.2188" y2="339.2188"/></g><!--class Publisher--><g class="entity" data-entity="Publisher" data-source-line="74" data-uid="ent0018" id="entity_Publisher"><rect fill="#F1F1F1" height="83.2188" rx="2.5" ry="2.5" style="stroke:#181818;stroke-width:0.5;" width="246.2266" x="598.5" y="151"/><ellipse cx="688.1807" cy="167" fill="#ADD1B2" rx="11" ry="11" style="stroke:#181818;stroke-width:1;"/><path d="M690.9463,162.875 Q691.1025,162.6563 691.29,162.5469 Q691.4775,162.4375 691.6963,162.4375 Q692.0713,162.4375 692.3057,162.7031 Q692.54,162.9531 692.54,163.5625 L692.54,165.0156 Q692.54,165.625 692.3057,165.8906 Q692.0713,166.1563 691.6963,166.1563 Q691.3525,166.1563 691.1494,165.9531 Q690.9463,165.7656 690.8369,165.25 Q690.79,164.8906 690.6025,164.7031 Q690.2744,164.3281 689.665,164.1094 Q689.0557,163.8906 688.4307,163.8906 Q687.665,163.8906 687.0244,164.2188 Q686.3994,164.5469 685.8994,165.2969 Q685.415,166.0469 685.415,167.0781 L685.415,168.1719 Q685.415,169.4063 686.3057,170.2344 Q687.1963,171.0469 688.79,171.0469 Q689.7275,171.0469 690.3838,170.7969 Q690.7744,170.6406 691.1963,170.2031 Q691.4619,169.9375 691.6025,169.8594 Q691.7588,169.7813 691.9619,169.7813 Q692.29,169.7813 692.54,170.0469 Q692.8057,170.2969 692.8057,170.6406 Q692.8057,170.9844 692.4619,171.3906 Q691.9619,171.9688 691.165,172.2969 Q690.0869,172.75 688.79,172.75 Q687.2744,172.75 686.0713,172.125 Q685.0869,171.625 684.3994,170.5625 Q683.7119,169.4844 683.7119,168.2031 L683.7119,167.0469 Q683.7119,165.7188 684.3213,164.5781 Q684.9463,163.4219 686.04,162.8125 Q687.1338,162.1875 688.3682,162.1875 Q689.1025,162.1875 689.7432,162.3594 Q690.3994,162.5156 690.9463,162.875 Z " fill="#000000"/><text fill="#000000" font-family="sans-serif" font-size="14" lengthAdjust="spacing" textLength="58.3652" x="708.6807" y="172.7285">Publisher</text><line style="stroke:#181818;stroke-width:0.5;" x1="599.5" x2="843.7266" y1="183" y2="183"/><ellipse cx="609.5" cy="197.3047" fill="none" rx="3" ry="3" style="stroke:#038048;stroke-width:1;"/><text fill="#000000" font-family="sans-serif" font-size="14" lengthAdjust="spacing" textLength="175.1094" x="618.5" y="201.5332">CompanyId : int &#171;get&#187; &#171;set&#187;</text><ellipse cx="609.5" cy="214.9141" fill="none" rx="3" ry="3" style="stroke:#038048;stroke-width:1;"/><text fill="#000000" font-family="sans-serif" font-size="14" lengthAdjust="spacing" textLength="220.2266" x="618.5" y="219.1426">CompanyName : string &#171;get&#187; &#171;set&#187;</text><line style="stroke:#181818;stroke-width:0.5;" x1="599.5" x2="843.7266" y1="226.2188" y2="226.2188"/></g><!--class GameMode--><g class="entity" data-entity="GameMode" data-source-line="81" data-uid="ent0022" id="entity_GameMode"><rect fill="#F1F1F1" height="83.2188" rx="2.5" ry="2.5" style="stroke:#181818;stroke-width:0.5;" width="259.4541" x="884" y="394.5"/><ellipse cx="972.9048" cy="410.5" fill="#ADD1B2" rx="11" ry="11" style="stroke:#181818;stroke-width:1;"/><path d="M975.6704,406.375 Q975.8267,406.1563 976.0142,406.0469 Q976.2017,405.9375 976.4204,405.9375 Q976.7954,405.9375 977.0298,406.2031 Q977.2642,406.4531 977.2642,407.0625 L977.2642,408.5156 Q977.2642,409.125 977.0298,409.3906 Q976.7954,409.6563 976.4204,409.6563 Q976.0767,409.6563 975.8735,409.4531 Q975.6704,409.2656 975.561,408.75 Q975.5142,408.3906 975.3267,408.2031 Q974.9985,407.8281 974.3892,407.6094 Q973.7798,407.3906 973.1548,407.3906 Q972.3892,407.3906 971.7485,407.7188 Q971.1235,408.0469 970.6235,408.7969 Q970.1392,409.5469 970.1392,410.5781 L970.1392,411.6719 Q970.1392,412.9063 971.0298,413.7344 Q971.9204,414.5469 973.5142,414.5469 Q974.4517,414.5469 975.1079,414.2969 Q975.4985,414.1406 975.9204,413.7031 Q976.186,413.4375 976.3267,413.3594 Q976.4829,413.2813 976.686,413.2813 Q977.0142,413.2813 977.2642,413.5469 Q977.5298,413.7969 977.5298,414.1406 Q977.5298,414.4844 977.186,414.8906 Q976.686,415.4688 975.8892,415.7969 Q974.811,416.25 973.5142,416.25 Q971.9985,416.25 970.7954,415.625 Q969.811,415.125 969.1235,414.0625 Q968.436,412.9844 968.436,411.7031 L968.436,410.5469 Q968.436,409.2188 969.0454,408.0781 Q969.6704,406.9219 970.7642,406.3125 Q971.8579,405.6875 973.0923,405.6875 Q973.8267,405.6875 974.4673,405.8594 Q975.1235,406.0156 975.6704,406.375 Z " fill="#000000"/><text fill="#000000" font-family="sans-serif" font-size="14" lengthAdjust="spacing" textLength="73.1445" x="993.4048" y="416.2285">GameMode</text><line style="stroke:#181818;stroke-width:0.5;" x1="885" x2="1142.4541" y1="426.5" y2="426.5"/><ellipse cx="895" cy="440.8047" fill="none" rx="3" ry="3" style="stroke:#038048;stroke-width:1;"/><text fill="#000000" font-family="sans-serif" font-size="14" lengthAdjust="spacing" textLength="115.1924" x="904" y="445.0332">Id : int &#171;get&#187; &#171;set&#187;</text><ellipse cx="895" cy="458.4141" fill="none" rx="3" ry="3" style="stroke:#038048;stroke-width:1;"/><text fill="#000000" font-family="sans-serif" font-size="14" lengthAdjust="spacing" textLength="233.4541" x="904" y="462.6426">GameModeName : string &#171;get&#187; &#171;set&#187;</text><line style="stroke:#181818;stroke-width:0.5;" x1="885" x2="1142.4541" y1="469.7188" y2="469.7188"/></g><!--class Genre--><g class="entity" data-entity="Genre" data-source-line="86" data-uid="ent0024" id="entity_Genre"><rect fill="#F1F1F1" height="83.2188" rx="2.5" ry="2.5" style="stroke:#181818;stroke-width:0.5;" width="225.2197" x="1178" y="394.5"/><ellipse cx="1266.9048" cy="410.5" fill="#ADD1B2" rx="11" ry="11" style="stroke:#181818;stroke-width:1;"/><path d="M1269.6704,406.375 Q1269.8267,406.1563 1270.0142,406.0469 Q1270.2017,405.9375 1270.4204,405.9375 Q1270.7954,405.9375 1271.0298,406.2031 Q1271.2642,406.4531 1271.2642,407.0625 L1271.2642,408.5156 Q1271.2642,409.125 1271.0298,409.3906 Q1270.7954,409.6563 1270.4204,409.6563 Q1270.0767,409.6563 1269.8735,409.4531 Q1269.6704,409.2656 1269.561,408.75 Q1269.5142,408.3906 1269.3267,408.2031 Q1268.9985,407.8281 1268.3892,407.6094 Q1267.7798,407.3906 1267.1548,407.3906 Q1266.3892,407.3906 1265.7485,407.7188 Q1265.1235,408.0469 1264.6235,408.7969 Q1264.1392,409.5469 1264.1392,410.5781 L1264.1392,411.6719 Q1264.1392,412.9063 1265.0298,413.7344 Q1265.9204,414.5469 1267.5142,414.5469 Q1268.4517,414.5469 1269.1079,414.2969 Q1269.4985,414.1406 1269.9204,413.7031 Q1270.186,413.4375 1270.3267,413.3594 Q1270.4829,413.2813 1270.686,413.2813 Q1271.0142,413.2813 1271.2642,413.5469 Q1271.5298,413.7969 1271.5298,414.1406 Q1271.5298,414.4844 1271.186,414.8906 Q1270.686,415.4688 1269.8892,415.7969 Q1268.811,416.25 1267.5142,416.25 Q1265.9985,416.25 1264.7954,415.625 Q1263.811,415.125 1263.1235,414.0625 Q1262.436,412.9844 1262.436,411.7031 L1262.436,410.5469 Q1262.436,409.2188 1263.0454,408.0781 Q1263.6704,406.9219 1264.7642,406.3125 Q1265.8579,405.6875 1267.0923,405.6875 Q1267.8267,405.6875 1268.4673,405.8594 Q1269.1235,406.0156 1269.6704,406.375 Z " fill="#000000"/><text fill="#000000" font-family="sans-serif" font-size="14" lengthAdjust="spacing" textLength="38.9102" x="1287.4048" y="416.2285">Genre</text><line style="stroke:#181818;stroke-width:0.5;" x1="1179" x2="1402.2197" y1="426.5" y2="426.5"/><ellipse cx="1189" cy="440.8047" fill="none" rx="3" ry="3" style="stroke:#038048;stroke-width:1;"/><text fill="#000000" font-family="sans-serif" font-size="14" lengthAdjust="spacing" textLength="154.1025" x="1198" y="445.0332">GenreId : int &#171;get&#187; &#171;set&#187;</text><ellipse cx="1189" cy="458.4141" fill="none" rx="3" ry="3" style="stroke:#038048;stroke-width:1;"/><text fill="#000000" font-family="sans-serif" font-size="14" lengthAdjust="spacing" textLength="199.2197" x="1198" y="462.6426">GenreName : string &#171;get&#187; &#171;set&#187;</text><line style="stroke:#181818;stroke-width:0.5;" x1="1179" x2="1402.2197" y1="469.7188" y2="469.7188"/></g><!--class Tag--><g class="entity" data-entity="Tag" data-source-line="91" data-uid="ent0026" id="entity_Tag"><rect fill="#F1F1F1" height="83.2188" rx="2.5" ry="2.5" style="stroke:#181818;stroke-width:0.5;" width="210.4336" x="1438.5" y="394.5"/><ellipse cx="1527.4048" cy="410.5" fill="#ADD1B2" rx="11" ry="11" style="stroke:#181818;stroke-width:1;"/><path d="M1530.1704,406.375 Q1530.3267,406.1563 1530.5142,406.0469 Q1530.7017,405.9375 1530.9204,405.9375 Q1531.2954,405.9375 1531.5298,406.2031 Q1531.7642,406.4531 1531.7642,407.0625 L1531.7642,408.5156 Q1531.7642,409.125 1531.5298,409.3906 Q1531.2954,409.6563 1530.9204,409.6563 Q1530.5767,409.6563 1530.3735,409.4531 Q1530.1704,409.2656 1530.061,408.75 Q1530.0142,408.3906 1529.8267,408.2031 Q1529.4985,407.8281 1528.8892,407.6094 Q1528.2798,407.3906 1527.6548,407.3906 Q1526.8892,407.3906 1526.2485,407.7188 Q1525.6235,408.0469 1525.1235,408.7969 Q1524.6392,409.5469 1524.6392,410.5781 L1524.6392,411.6719 Q1524.6392,412.9063 1525.5298,413.7344 Q1526.4204,414.5469 1528.0142,414.5469 Q1528.9517,414.5469 1529.6079,414.2969 Q1529.9985,414.1406 1530.4204,413.7031 Q1530.686,413.4375 1530.8267,413.3594 Q1530.9829,413.2813 1531.186,413.2813 Q1531.5142,413.2813 1531.7642,413.5469 Q1532.0298,413.7969 1532.0298,414.1406 Q1532.0298,414.4844 1531.686,414.8906 Q1531.186,415.4688 1530.3892,415.7969 Q1529.311,416.25 1528.0142,416.25 Q1526.4985,416.25 1525.2954,415.625 Q1524.311,415.125 1523.6235,414.0625 Q1522.936,412.9844 1522.936,411.7031 L1522.936,410.5469 Q1522.936,409.2188 1523.5454,408.0781 Q1524.1704,406.9219 1525.2642,406.3125 Q1526.3579,405.6875 1527.5923,405.6875 Q1528.3267,405.6875 1528.9673,405.8594 Q1529.6235,406.0156 1530.1704,406.375 Z " fill="#000000"/><text fill="#000000" font-family="sans-serif" font-size="14" lengthAdjust="spacing" textLength="24.124" x="1547.9048" y="416.2285">Tag</text><line style="stroke:#181818;stroke-width:0.5;" x1="1439.5" x2="1647.9336" y1="426.5" y2="426.5"/><ellipse cx="1449.5" cy="440.8047" fill="none" rx="3" ry="3" style="stroke:#038048;stroke-width:1;"/><text fill="#000000" font-family="sans-serif" font-size="14" lengthAdjust="spacing" textLength="139.3164" x="1458.5" y="445.0332">TagId : int &#171;get&#187; &#171;set&#187;</text><ellipse cx="1449.5" cy="458.4141" fill="none" rx="3" ry="3" style="stroke:#038048;stroke-width:1;"/><text fill="#000000" font-family="sans-serif" font-size="14" lengthAdjust="spacing" textLength="184.4336" x="1458.5" y="462.6426">TagName : string &#171;get&#187; &#171;set&#187;</text><line style="stroke:#181818;stroke-width:0.5;" x1="1439.5" x2="1647.9336" y1="469.7188" y2="469.7188"/></g><!--link CustomFolder to VideogameUser--><g class="link" data-entity-1="CustomFolder" data-entity-2="VideogameUser" data-source-line="42" data-uid="lnk6" id="link_CustomFolder_VideogameUser"><path codeLine="42" d="M237.2694,712.4023 C280.2494,741.4823 322.9007,770.3276 369.0707,801.5676" fill="none" id="CustomFolder-VideogameUser" style="stroke:#181818;stroke-width:1;"/><polygon fill="#181818" points="232.3,709.04,237.5126,717.3964,236.4412,711.8419,241.9956,710.7705,232.3,709.04" style="stroke:#181818;stroke-width:1;"/><polygon fill="#181818" points="374.04,804.93,368.8276,796.5735,369.8989,802.128,364.3444,803.1993,374.04,804.93" style="stroke:#181818;stroke-width:1;"/><text fill="#000000" font-family="sans-serif" font-size="13" lengthAdjust="spacing" textLength="19.5127" x="223.1142" y="731.1191">0..*</text><text fill="#000000" font-family="sans-serif" font-size="13" lengthAdjust="spacing" textLength="19.5127" x="343.0751" y="794.0853">0..*</text></g><!--link GamingConsole to Videogame--><g class="link" data-entity-1="GamingConsole" data-entity-2="Videogame" data-source-line="48" data-uid="lnk9" id="link_GamingConsole_Videogame"><path codeLine="48" d="M782.5051,490.6629 C811.5851,516.2429 838.6552,540.0568 871.1752,568.6668" fill="none" id="GamingConsole-Videogame" style="stroke:#181818;stroke-width:1;"/><polygon fill="#181818" points="778,486.7,782.1157,495.6477,781.7542,490.0024,787.3995,489.6409,778,486.7" style="stroke:#181818;stroke-width:1;"/><polygon fill="#181818" points="875.68,572.63,871.5649,563.682,871.926,569.3274,866.2807,569.6884,875.68,572.63" style="stroke:#181818;stroke-width:1;"/><text fill="#000000" font-family="sans-serif" font-size="13" lengthAdjust="spacing" textLength="19.5127" x="765.053" y="507.7496">1..*</text><text fill="#000000" font-family="sans-serif" font-size="13" lengthAdjust="spacing" textLength="19.5127" x="847.5227" y="562.0214">0..*</text></g><!--link Review to VideogameUser--><g class="link" data-entity-1="Review" data-entity-2="VideogameUser" data-source-line="56" data-uid="lnk11" id="link_Review_VideogameUser"><path codeLine="56" d="M579.26,718.14 C563.78,745.33 548.7888,771.636 532.8288,799.666" fill="none" id="Review-to-VideogameUser" style="stroke:#181818;stroke-width:1;"/><polygon fill="#181818" points="529.86,804.88,537.7892,799.0382,532.334,800.535,530.8372,795.0797,529.86,804.88" style="stroke:#181818;stroke-width:1;"/><text fill="#000000" font-family="sans-serif" font-size="13" lengthAdjust="spacing" textLength="93.2153" x="556.5" y="771.4951">VideogameUser</text><text fill="#000000" font-family="sans-serif" font-size="13" lengthAdjust="spacing" textLength="21.6836" x="553.2676" y="739.5028">0..1</text><text fill="#000000" font-family="sans-serif" font-size="13" lengthAdjust="spacing" textLength="7.23" x="526.8104" y="794.0303">1</text></g><!--link User to Videogame--><g class="link" data-entity-1="User" data-entity-2="Videogame" data-source-line="63" data-uid="lnk13" id="link_User_Videogame"><path codeLine="63" d="M375.09,495.13 C386.43,513.48 401.5,531.86 420.5,543 C486.88,581.93 690.53,555.65 765.5,573 C788.54,578.33 806.8199,583.781 829.7399,591.971" fill="none" id="User-to-Videogame" style="stroke:#181818;stroke-width:1;"/><polygon fill="#181818" points="835.39,593.99,828.2608,587.1948,830.6816,592.3075,825.5689,594.7283,835.39,593.99" style="stroke:#181818;stroke-width:1;"/><text fill="#000000" font-family="sans-serif" font-size="13" lengthAdjust="spacing" textLength="93.2153" x="421.5" y="539.4951">VideogameUser</text><text fill="#000000" font-family="sans-serif" font-size="13" lengthAdjust="spacing" textLength="19.5127" x="358.2092" y="516.8013">0..*</text><text fill="#000000" font-family="sans-serif" font-size="13" lengthAdjust="spacing" textLength="19.5127" x="808.0801" y="587.6057">0..*</text></g><!--reverse link Company to Developer--><g class="link" data-entity-1="Company" data-entity-2="Developer" data-source-line="72" data-uid="lnk16" id="link_Company_Developer"><path codeLine="72" d="M1019.9977,97.1799 C1130.4077,144.8099 1295.97,216.25 1406.43,263.91" fill="none" id="Company-backto-Developer" style="stroke:#181818;stroke-width:1;"/><polygon fill="none" points="1003.47,90.05,1017.621,102.6891,1022.3743,91.6707,1003.47,90.05" style="stroke:#181818;stroke-width:1;"/></g><!--link Developer to Videogame--><g class="link" data-entity-1="Developer" data-entity-2="Videogame" data-source-line="73" data-uid="lnk17" id="link_Developer_Videogame"><path codeLine="73" d="M1628.7704,341.6676 C1645.7504,351.2876 1655.79,360.81 1666.5,377 C1695.44,420.74 1699.38,454.15 1666.5,495 C1595.46,583.27 1278.5068,623.193 1095.6868,639.313" fill="none" id="Developer-Videogame" style="stroke:#181818;stroke-width:1;"/><polygon fill="#181818" points="1623.55,338.71,1629.4089,346.6267,1627.9003,341.1747,1633.3523,339.6662,1623.55,338.71" style="stroke:#181818;stroke-width:1;"/><polygon fill="#181818" points="1089.71,639.84,1099.0266,643.034,1094.6907,639.4008,1098.3239,635.065,1089.71,639.84" style="stroke:#181818;stroke-width:1;"/><text fill="#000000" font-family="sans-serif" font-size="13" lengthAdjust="spacing" textLength="19.5127" x="1631.636" y="337.7454">1..*</text><text fill="#000000" font-family="sans-serif" font-size="13" lengthAdjust="spacing" textLength="19.5127" x="1097.6276" y="636.3053">0..*</text></g><!--reverse link Company to Publisher--><g class="link" data-entity-1="Company" data-entity-2="Publisher" data-source-line="78" data-uid="lnk19" id="link_Company_Publisher"><path codeLine="78" d="M841.5162,100.8481 C816.2262,119.9481 800.49,131.84 775.19,150.94" fill="none" id="Company-backto-Publisher" style="stroke:#181818;stroke-width:1;"/><polygon fill="none" points="855.88,90,837.9002,96.0602,845.1322,105.636,855.88,90" style="stroke:#181818;stroke-width:1;"/></g><!--link Publisher to Videogame--><g class="link" data-entity-1="Publisher" data-entity-2="Videogame" data-source-line="79" data-uid="lnk20" id="link_Publisher_Videogame"><path codeLine="79" d="M671.7001,238.2646 C610.1601,298.1546 518.8,408.3 577.5,495 C581.45,500.84 719.0854,555.012 829.6854,597.872" fill="none" id="Publisher-Videogame" style="stroke:#181818;stroke-width:1;"/><polygon fill="#181818" points="676,234.08,666.7604,237.4903,672.4168,237.5672,672.3399,243.2235,676,234.08" style="stroke:#181818;stroke-width:1;"/><polygon fill="#181818" points="835.28,600.04,828.3334,593.0582,830.6178,598.2333,825.4427,600.5177,835.28,600.04" style="stroke:#181818;stroke-width:1;"/><text fill="#000000" font-family="sans-serif" font-size="13" lengthAdjust="spacing" textLength="19.5127" x="647.9143" y="255.7978">1..*</text><text fill="#000000" font-family="sans-serif" font-size="13" lengthAdjust="spacing" textLength="19.5127" x="807.9634" y="610.9994">0..*</text></g><!--link Publisher to GamingConsole--><g class="link" data-entity-1="Publisher" data-entity-2="GamingConsole" data-source-line="80" data-uid="lnk21" id="link_Publisher_GamingConsole"><path codeLine="80" d="M721.5,240.19 C721.5,281.87 721.5,334.69 721.5,379.35" fill="none" id="Publisher-GamingConsole" style="stroke:#181818;stroke-width:1;"/><polygon fill="#181818" points="721.5,234.19,717.5,243.19,721.5,239.19,725.5,243.19,721.5,234.19" style="stroke:#181818;stroke-width:1;"/><polygon fill="#181818" points="721.5,385.35,725.5,376.35,721.5,380.35,717.5,376.35,721.5,385.35" style="stroke:#181818;stroke-width:1;"/><text fill="#000000" font-family="sans-serif" font-size="13" lengthAdjust="spacing" textLength="7.23" x="713.9425" y="255.615">1</text><text fill="#000000" font-family="sans-serif" font-size="13" lengthAdjust="spacing" textLength="19.5127" x="701.1983" y="374.6343">0..*</text></g><!--link GameMode to Videogame--><g class="link" data-entity-1="GameMode" data-entity-2="Videogame" data-source-line="85" data-uid="lnk23" id="link_GameMode_Videogame"><path codeLine="85" d="M1002.2655,483.7133 C995.8055,510.5433 989.9737,534.7965 982.2737,566.7965" fill="none" id="GameMode-Videogame" style="stroke:#181818;stroke-width:1;"/><polygon fill="#181818" points="1003.67,477.88,997.6744,485.6936,1002.4996,482.7411,1005.4521,487.5663,1003.67,477.88" style="stroke:#181818;stroke-width:1;"/><polygon fill="#181818" points="980.87,572.63,986.8645,564.8155,982.0397,567.7688,979.0865,562.944,980.87,572.63" style="stroke:#181818;stroke-width:1;"/><text fill="#000000" font-family="sans-serif" font-size="13" lengthAdjust="spacing" textLength="19.5127" x="981.594" y="499.3353">1..*</text><text fill="#000000" font-family="sans-serif" font-size="13" lengthAdjust="spacing" textLength="19.5127" x="962.7386" y="562.0214">0..*</text></g><!--link Genre to Videogame--><g class="link" data-entity-1="Genre" data-entity-2="Videogame" data-source-line="90" data-uid="lnk25" id="link_Genre_Videogame"><path codeLine="90" d="M1222.6113,480.8776 C1180.9413,507.8176 1135.0595,537.4736 1085.2895,569.6336" fill="none" id="Genre-Videogame" style="stroke:#181818;stroke-width:1;"/><polygon fill="#181818" points="1227.65,477.62,1217.9203,479.1472,1223.4511,480.3346,1222.2637,485.8655,1227.65,477.62" style="stroke:#181818;stroke-width:1;"/><polygon fill="#181818" points="1080.25,572.89,1089.9801,571.3651,1084.4495,570.1764,1085.6383,564.6458,1080.25,572.89" style="stroke:#181818;stroke-width:1;"/><text fill="#000000" font-family="sans-serif" font-size="13" lengthAdjust="spacing" textLength="19.5127" x="1196.6913" y="499.3444">1..*</text><text fill="#000000" font-family="sans-serif" font-size="13" lengthAdjust="spacing" textLength="19.5127" x="1071.9298" y="562.0413">0..*</text></g><!--link Tag to Videogame--><g class="link" data-entity-1="Tag" data-entity-2="Videogame" data-source-line="95" data-uid="lnk27" id="link_Tag_Videogame"><path codeLine="95" d="M1455.251,480.1299 C1441.921,486.2099 1433.64,489.71 1420.5,495 C1310.57,539.23 1188.2457,579.7365 1095.5357,608.7765" fill="none" id="Tag-Videogame" style="stroke:#181818;stroke-width:1;"/><polygon fill="#181818" points="1460.71,477.64,1450.8616,477.7356,1456.1609,479.7149,1454.1815,485.0142,1460.71,477.64" style="stroke:#181818;stroke-width:1;"/><polygon fill="#181818" points="1089.81,610.57,1099.5942,611.6969,1094.5814,609.0754,1097.2029,604.0627,1089.81,610.57" style="stroke:#181818;stroke-width:1;"/><text fill="#000000" font-family="sans-serif" font-size="13" lengthAdjust="spacing" textLength="19.5127" x="1426.431" y="499.3677">0..*</text><text fill="#000000" font-family="sans-serif" font-size="13" lengthAdjust="spacing" textLength="19.5127" x="1097.7334" y="605.3432">0..*</text></g><!--link User to VideogameUser--><g class="link" data-entity-1="User" data-entity-2="VideogameUser" data-source-line="112" data-uid="lnk28" id="link_User_VideogameUser"><path codeLine="112" d="M344.5992,501.1273 C342.7892,561.1573 345.81,650.57 374.5,727 C384.78,754.39 397.779,776.421 415.049,799.841" fill="none" id="User-VideogameUser" style="stroke:#181818;stroke-width:1;"/><polygon fill="#181818" points="344.78,495.13,340.5106,504.0054,344.6293,500.1277,348.5069,504.2465,344.78,495.13" style="stroke:#181818;stroke-width:1;"/><polygon fill="#181818" points="418.61,804.67,416.4879,795.0525,415.6425,800.6458,410.0492,799.8004,418.61,804.67" style="stroke:#181818;stroke-width:1;"/><text fill="#000000" font-family="sans-serif" font-size="13" lengthAdjust="spacing" textLength="93.2153" x="375.5" y="655.4951">VideogameUser</text><text fill="#000000" font-family="sans-serif" font-size="13" lengthAdjust="spacing" textLength="7.23" x="336.9192" y="516.8013">1</text><text fill="#000000" font-family="sans-serif" font-size="13" lengthAdjust="spacing" textLength="19.5127" x="392.273" y="794.0652">0..*</text></g><!--link Videogame to VideogameUser--><g class="link" data-entity-1="Videogame" data-entity-2="VideogameUser" data-source-line="113" data-uid="lnk29" id="link_Videogame_VideogameUser"><path codeLine="113" d="M829.8479,715.0909 C762.1079,747.8309 689.7525,782.7899 621.6325,815.6999" fill="none" id="Videogame-VideogameUser" style="stroke:#181818;stroke-width:1;"/><polygon fill="#181818" points="835.25,712.48,825.4062,712.795,830.7482,714.6558,828.8874,719.9978,835.25,712.48" style="stroke:#181818;stroke-width:1;"/><polygon fill="#181818" points="616.23,818.31,626.0739,817.9966,620.7321,816.1349,622.5938,810.7932,616.23,818.31" style="stroke:#181818;stroke-width:1;"/><text fill="#000000" font-family="sans-serif" font-size="13" lengthAdjust="spacing" textLength="93.2153" x="739.5" y="771.4951">VideogameUser</text><text fill="#000000" font-family="sans-serif" font-size="13" lengthAdjust="spacing" textLength="7.23" x="820.2886" y="713.3162">1</text><text fill="#000000" font-family="sans-serif" font-size="13" lengthAdjust="spacing" textLength="19.5127" x="623.8667" y="811.9036">0..*</text></g><!--link VideogameUser to GameStatus--><g class="link" data-entity-1="VideogameUser" data-entity-2="GameStatus" data-source-line="114" data-uid="lnk30" id="link_VideogameUser_GameStatus"><path codeLine="114" d="M465.99,959.1 C460.87,978.06 456.7911,993.1867 451.1511,1014.1167" fill="none" id="VideogameUser-to-GameStatus" style="stroke:#181818;stroke-width:1;"/><polygon fill="#181818" points="449.59,1019.91,455.7939,1012.2607,450.8909,1015.0822,448.0695,1010.1792,449.59,1019.91" style="stroke:#181818;stroke-width:1;"/><text fill="#000000" font-family="sans-serif" font-size="13" lengthAdjust="spacing" textLength="72.2554" x="377.6658" y="1008.9428">GameStatus</text></g><!--link VideogameUser to Ownership--><g class="link" data-entity-1="VideogameUser" data-entity-2="Ownership" data-source-line="115" data-uid="lnk31" id="link_VideogameUser_Ownership"><path codeLine="115" d="M507.01,959.1 C515.76,991.55 524.4881,1023.9269 533.6981,1058.0869" fill="none" id="VideogameUser-to-Ownership" style="stroke:#181818;stroke-width:1;"/><polygon fill="#181818" points="535.26,1063.88,536.7792,1054.149,533.9584,1059.0524,529.055,1056.2316,535.26,1063.88" style="stroke:#181818;stroke-width:1;"/><text fill="#000000" font-family="sans-serif" font-size="13" lengthAdjust="spacing" textLength="62.1372" x="472.4475" y="1053.2447">Ownership</text></g><!--SRC=[pLPDSzem4BtpApo-96b3KguPoWo19is1mF2H7Zez27inch4bLv99c9J_thKiopZ57zDsEkM2LdxQVM-rNk_rMSSBYPJEXCGnY15d6neuhvs3sPu97WWIuOw3l_VEgrH4KU-0UChEYGZaZLI2ik3hjmldnjbnwjkpJzG77f08XiBRqXqCPm_ZDKPGyAAimphGEOyLvKpUs9rfjj6lEpMuG0PdrnrWIUJS8sQ1b1Df8aw8L230lzJMY4Tn22etfopWg2KpPYIH-ODPIFRvUWunMjbwXUbYL6wBPufQvqj1y-LOS4nl3Y81V4-eic5NB3xo_yWPNA84pN_wp438BOqD_IyOBAHI6Rxur9pwp97jbeV6N6o9vR58rj8JLASksxdbGl3d4iy7u_AEYmX4k3UkyxiS9LBnw0xzWx1tbvaFFbuyPShfzmDGWm7-o_I_17h4Uq1OLYiLo940WZaPAWIESRMa4Kmt6uHK75Z5Vji3Xqv9WVlXwkgTw_IxtK6-jYMraY2CQgmUf8jr9Na8LhQn6tGRL1lXSmY1I4Wb62LJ5kvFQ2ZpSNlL8eo0EUmeF5lccTb0_8bh6ZvFrXYaYd7gQ4bLs49S2jNl9bDDuD8bQ9uLy4F7I4k5zrn7vw3tvXRnk5lQS4rQzCCyATMXyDK-AZRvFrInPcuk-zIzdv1CriYNUCenRpAsFCBsHzMixSPgrgZw1EJDOWmx27bybEE_6YHNqF_HxHQnEaNK5Y_638ixxTl_WgADrIcYrb8yXfKnfGPGD2cOSB_eJmqISdoJ1kktHJhlWOc2WBQQMAIOHWhQROluInBOwBXkY8s8fiYfmxgFnDiHfz2EHeiBQDD99fJfkKF8MdSJyj86zedWLtteUI1Jt9hpy4-_HczIK6gglpRocWzEZct0DNqJCXGEGa9cynf2qsQwm5Un0dmBYYm19qA_8YVEHsT3GWbvvQ0xQOV62hPvb-xL31Wd-dHHIxzzKZ_N1ukvrpsQWKyXxOJf5iFcJm00]--></g></svg>