<svg xmlns="http://www.w3.org/2000/svg" xmlns:xlink="http://www.w3.org/1999/xlink" contentStyleType="text/css" data-diagram-type="CLASS" height="987px" preserveAspectRatio="none" style="width:2757px;height:987px;background:#FFFFFF;" version="1.1" viewBox="0 0 2757 987" width="2757px" zoomAndPan="magnify"><defs/><g><!--class MapperConfig--><g class="entity" data-entity="MapperConfig" data-source-line="1" data-uid="ent0002" id="entity_MapperConfig"><rect fill="#F1F1F1" height="48" rx="2.5" ry="2.5" style="stroke:#181818;stroke-width:0.5;" width="119.9375" x="7" y="51"/><ellipse cx="22" cy="67" fill="#ADD1B2" rx="11" ry="11" style="stroke:#181818;stroke-width:1;"/><path d="M24.7656,62.875 Q24.9219,62.6563 25.1094,62.5469 Q25.2969,62.4375 25.5156,62.4375 Q25.8906,62.4375 26.125,62.7031 Q26.3594,62.9531 26.3594,63.5625 L26.3594,65.0156 Q26.3594,65.625 26.125,65.8906 Q25.8906,66.1563 25.5156,66.1563 Q25.1719,66.1563 24.9688,65.9531 Q24.7656,65.7656 24.6563,65.25 Q24.6094,64.8906 24.4219,64.7031 Q24.0938,64.3281 23.4844,64.1094 Q22.875,63.8906 22.25,63.8906 Q21.4844,63.8906 20.8438,64.2188 Q20.2188,64.5469 19.7188,65.2969 Q19.2344,66.0469 19.2344,67.0781 L19.2344,68.1719 Q19.2344,69.4063 20.125,70.2344 Q21.0156,71.0469 22.6094,71.0469 Q23.5469,71.0469 24.2031,70.7969 Q24.5938,70.6406 25.0156,70.2031 Q25.2813,69.9375 25.4219,69.8594 Q25.5781,69.7813 25.7813,69.7813 Q26.1094,69.7813 26.3594,70.0469 Q26.625,70.2969 26.625,70.6406 Q26.625,70.9844 26.2813,71.3906 Q25.7813,71.9688 24.9844,72.2969 Q23.9063,72.75 22.6094,72.75 Q21.0938,72.75 19.8906,72.125 Q18.9063,71.625 18.2188,70.5625 Q17.5313,69.4844 17.5313,68.2031 L17.5313,67.0469 Q17.5313,65.7188 18.1406,64.5781 Q18.7656,63.4219 19.8594,62.8125 Q20.9531,62.1875 22.1875,62.1875 Q22.9219,62.1875 23.5625,62.3594 Q24.2188,62.5156 24.7656,62.875 Z " fill="#000000"/><text fill="#000000" font-family="sans-serif" font-size="14" lengthAdjust="spacing" textLength="87.9375" x="36" y="72.7285">MapperConfig</text><line style="stroke:#181818;stroke-width:0.5;" x1="8" x2="125.9375" y1="83" y2="83"/><line style="stroke:#181818;stroke-width:0.5;" x1="8" x2="125.9375" y1="91" y2="91"/></g><!--class Program--><g class="entity" data-entity="Program" data-source-line="3" data-uid="ent0003" id="entity_Program"><rect fill="#F1F1F1" height="65.6094" rx="2.5" ry="2.5" style="stroke:#181818;stroke-width:0.5;" width="176.1582" x="162" y="42"/><ellipse cx="218.9878" cy="58" fill="#ADD1B2" rx="11" ry="11" style="stroke:#181818;stroke-width:1;"/><path d="M221.7534,53.875 Q221.9097,53.6563 222.0972,53.5469 Q222.2847,53.4375 222.5034,53.4375 Q222.8784,53.4375 223.1128,53.7031 Q223.3472,53.9531 223.3472,54.5625 L223.3472,56.0156 Q223.3472,56.625 223.1128,56.8906 Q222.8784,57.1563 222.5034,57.1563 Q222.1597,57.1563 221.9565,56.9531 Q221.7534,56.7656 221.644,56.25 Q221.5972,55.8906 221.4097,55.7031 Q221.0815,55.3281 220.4722,55.1094 Q219.8628,54.8906 219.2378,54.8906 Q218.4722,54.8906 217.8315,55.2188 Q217.2065,55.5469 216.7065,56.2969 Q216.2222,57.0469 216.2222,58.0781 L216.2222,59.1719 Q216.2222,60.4063 217.1128,61.2344 Q218.0034,62.0469 219.5972,62.0469 Q220.5347,62.0469 221.1909,61.7969 Q221.5815,61.6406 222.0034,61.2031 Q222.269,60.9375 222.4097,60.8594 Q222.5659,60.7813 222.769,60.7813 Q223.0972,60.7813 223.3472,61.0469 Q223.6128,61.2969 223.6128,61.6406 Q223.6128,61.9844 223.269,62.3906 Q222.769,62.9688 221.9722,63.2969 Q220.894,63.75 219.5972,63.75 Q218.0815,63.75 216.8784,63.125 Q215.894,62.625 215.2065,61.5625 Q214.519,60.4844 214.519,59.2031 L214.519,58.0469 Q214.519,56.7188 215.1284,55.5781 Q215.7534,54.4219 216.8472,53.8125 Q217.9409,53.1875 219.1753,53.1875 Q219.9097,53.1875 220.5503,53.3594 Q221.2065,53.5156 221.7534,53.875 Z " fill="#000000"/><text fill="#000000" font-family="sans-serif" font-size="14" lengthAdjust="spacing" textLength="53.6826" x="239.4878" y="63.7285">Program</text><line style="stroke:#181818;stroke-width:0.5;" x1="163" x2="337.1582" y1="74" y2="74"/><line style="stroke:#181818;stroke-width:0.5;" x1="163" x2="337.1582" y1="82" y2="82"/><ellipse cx="173" cy="96.3047" fill="#84BE84" rx="3" ry="3" style="stroke:#038048;stroke-width:1;"/><text fill="#000000" font-family="sans-serif" font-size="14" lengthAdjust="spacing" text-decoration="underline" textLength="150.1582" x="182" y="100.5332">Main(args:string[]) : void</text></g><!--class VideogameArchiveAPIDbContext--><g class="entity" data-entity="VideogameArchiveAPIDbContext" data-source-line="6" data-uid="ent0004" id="entity_VideogameArchiveAPIDbContext"><rect fill="#F1F1F1" height="65.6094" rx="2.5" ry="2.5" style="stroke:#181818;stroke-width:0.5;" width="627.542" x="160" y="264.5"/><ellipse cx="366.4111" cy="280.5" fill="#ADD1B2" rx="11" ry="11" style="stroke:#181818;stroke-width:1;"/><path d="M369.1768,276.375 Q369.333,276.1563 369.5205,276.0469 Q369.708,275.9375 369.9268,275.9375 Q370.3018,275.9375 370.5361,276.2031 Q370.7705,276.4531 370.7705,277.0625 L370.7705,278.5156 Q370.7705,279.125 370.5361,279.3906 Q370.3018,279.6563 369.9268,279.6563 Q369.583,279.6563 369.3799,279.4531 Q369.1768,279.2656 369.0674,278.75 Q369.0205,278.3906 368.833,278.2031 Q368.5049,277.8281 367.8955,277.6094 Q367.2861,277.3906 366.6611,277.3906 Q365.8955,277.3906 365.2549,277.7188 Q364.6299,278.0469 364.1299,278.7969 Q363.6455,279.5469 363.6455,280.5781 L363.6455,281.6719 Q363.6455,282.9063 364.5361,283.7344 Q365.4268,284.5469 367.0205,284.5469 Q367.958,284.5469 368.6143,284.2969 Q369.0049,284.1406 369.4268,283.7031 Q369.6924,283.4375 369.833,283.3594 Q369.9893,283.2813 370.1924,283.2813 Q370.5205,283.2813 370.7705,283.5469 Q371.0361,283.7969 371.0361,284.1406 Q371.0361,284.4844 370.6924,284.8906 Q370.1924,285.4688 369.3955,285.7969 Q368.3174,286.25 367.0205,286.25 Q365.5049,286.25 364.3018,285.625 Q363.3174,285.125 362.6299,284.0625 Q361.9424,282.9844 361.9424,281.7031 L361.9424,280.5469 Q361.9424,279.2188 362.5518,278.0781 Q363.1768,276.9219 364.2705,276.3125 Q365.3643,275.6875 366.5986,275.6875 Q367.333,275.6875 367.9736,275.8594 Q368.6299,276.0156 369.1768,276.375 Z " fill="#000000"/><text fill="#000000" font-family="sans-serif" font-size="14" lengthAdjust="spacing" textLength="206.2197" x="386.9111" y="286.2285">VideogameArchiveAPIDbContext</text><line style="stroke:#181818;stroke-width:0.5;" x1="161" x2="786.542" y1="296.5" y2="296.5"/><line style="stroke:#181818;stroke-width:0.5;" x1="161" x2="786.542" y1="304.5" y2="304.5"/><ellipse cx="171" cy="318.8047" fill="#84BE84" rx="3" ry="3" style="stroke:#038048;stroke-width:1;"/><text fill="#000000" font-family="sans-serif" font-size="14" lengthAdjust="spacing" textLength="601.542" x="180" y="323.0332">VideogameArchiveAPIDbContext(options:DbContextOptions&lt;VideogameArchiveAPIDbContext&gt;)</text></g><!--class DbSet`1--><g class="entity" data-entity="DbSet.1" data-source-line="9" data-uid="ent0005" id="entity_DbSet.1"><rect fill="#F1F1F1" height="48" rx="2.5" ry="2.5" style="stroke:#181818;stroke-width:0.5;" width="94.6885" x="426.5" y="566.5"/><ellipse cx="441.5" cy="582.5" fill="#ADD1B2" rx="11" ry="11" style="stroke:#181818;stroke-width:1;"/><path d="M444.2656,578.375 Q444.4219,578.1563 444.6094,578.0469 Q444.7969,577.9375 445.0156,577.9375 Q445.3906,577.9375 445.625,578.2031 Q445.8594,578.4531 445.8594,579.0625 L445.8594,580.5156 Q445.8594,581.125 445.625,581.3906 Q445.3906,581.6563 445.0156,581.6563 Q444.6719,581.6563 444.4688,581.4531 Q444.2656,581.2656 444.1563,580.75 Q444.1094,580.3906 443.9219,580.2031 Q443.5938,579.8281 442.9844,579.6094 Q442.375,579.3906 441.75,579.3906 Q440.9844,579.3906 440.3438,579.7188 Q439.7188,580.0469 439.2188,580.7969 Q438.7344,581.5469 438.7344,582.5781 L438.7344,583.6719 Q438.7344,584.9063 439.625,585.7344 Q440.5156,586.5469 442.1094,586.5469 Q443.0469,586.5469 443.7031,586.2969 Q444.0938,586.1406 444.5156,585.7031 Q444.7813,585.4375 444.9219,585.3594 Q445.0781,585.2813 445.2813,585.2813 Q445.6094,585.2813 445.8594,585.5469 Q446.125,585.7969 446.125,586.1406 Q446.125,586.4844 445.7813,586.8906 Q445.2813,587.4688 444.4844,587.7969 Q443.4063,588.25 442.1094,588.25 Q440.5938,588.25 439.3906,587.625 Q438.4063,587.125 437.7188,586.0625 Q437.0313,584.9844 437.0313,583.7031 L437.0313,582.5469 Q437.0313,581.2188 437.6406,580.0781 Q438.2656,578.9219 439.3594,578.3125 Q440.4531,577.6875 441.6875,577.6875 Q442.4219,577.6875 443.0625,577.8594 Q443.7188,578.0156 444.2656,578.375 Z " fill="#000000"/><text fill="#000000" font-family="sans-serif" font-size="14" lengthAdjust="spacing" textLength="51.3584" x="455.5" y="588.2285">DbSet`1</text><rect fill="#FFFFFF" height="17.0938" style="stroke:#181818;stroke-width:1;stroke-dasharray:2,2;" width="9.3301" x="514.8584" y="563.5"/><text fill="#000000" font-family="sans-serif" font-size="12" font-style="italic" lengthAdjust="spacing" textLength="7.3301" x="515.8584" y="576.957">T</text><line style="stroke:#181818;stroke-width:0.5;" x1="427.5" x2="520.1885" y1="598.5" y2="598.5"/><line style="stroke:#181818;stroke-width:0.5;" x1="427.5" x2="520.1885" y1="606.5" y2="606.5"/></g><!--class DbContext--><g class="entity" data-entity="DbContext" data-source-line="11" data-uid="ent0006" id="entity_DbContext"><rect fill="#F1F1F1" height="48" rx="2.5" ry="2.5" style="stroke:#181818;stroke-width:0.5;" width="98.1445" x="425" y="51"/><ellipse cx="440" cy="67" fill="#ADD1B2" rx="11" ry="11" style="stroke:#181818;stroke-width:1;"/><path d="M442.7656,62.875 Q442.9219,62.6563 443.1094,62.5469 Q443.2969,62.4375 443.5156,62.4375 Q443.8906,62.4375 444.125,62.7031 Q444.3594,62.9531 444.3594,63.5625 L444.3594,65.0156 Q444.3594,65.625 444.125,65.8906 Q443.8906,66.1563 443.5156,66.1563 Q443.1719,66.1563 442.9688,65.9531 Q442.7656,65.7656 442.6563,65.25 Q442.6094,64.8906 442.4219,64.7031 Q442.0938,64.3281 441.4844,64.1094 Q440.875,63.8906 440.25,63.8906 Q439.4844,63.8906 438.8438,64.2188 Q438.2188,64.5469 437.7188,65.2969 Q437.2344,66.0469 437.2344,67.0781 L437.2344,68.1719 Q437.2344,69.4063 438.125,70.2344 Q439.0156,71.0469 440.6094,71.0469 Q441.5469,71.0469 442.2031,70.7969 Q442.5938,70.6406 443.0156,70.2031 Q443.2813,69.9375 443.4219,69.8594 Q443.5781,69.7813 443.7813,69.7813 Q444.1094,69.7813 444.3594,70.0469 Q444.625,70.2969 444.625,70.6406 Q444.625,70.9844 444.2813,71.3906 Q443.7813,71.9688 442.9844,72.2969 Q441.9063,72.75 440.6094,72.75 Q439.0938,72.75 437.8906,72.125 Q436.9063,71.625 436.2188,70.5625 Q435.5313,69.4844 435.5313,68.2031 L435.5313,67.0469 Q435.5313,65.7188 436.1406,64.5781 Q436.7656,63.4219 437.8594,62.8125 Q438.9531,62.1875 440.1875,62.1875 Q440.9219,62.1875 441.5625,62.3594 Q442.2188,62.5156 442.7656,62.875 Z " fill="#000000"/><text fill="#000000" font-family="sans-serif" font-size="14" lengthAdjust="spacing" textLength="66.1445" x="454" y="72.7285">DbContext</text><line style="stroke:#181818;stroke-width:0.5;" x1="426" x2="522.1445" y1="83" y2="83"/><line style="stroke:#181818;stroke-width:0.5;" x1="426" x2="522.1445" y1="91" y2="91"/></g><!--class GameStatus--><g class="entity" data-entity="GameStatus" data-source-line="22" data-uid="ent0018" id="entity_GameStatus"><rect fill="#F1F1F1" height="276.9219" rx="2.5" ry="2.5" style="stroke:#181818;stroke-width:0.5;" width="109.8135" x="557" y="452"/><ellipse cx="572" cy="468" fill="#EB937F" rx="11" ry="11" style="stroke:#181818;stroke-width:1;"/><path d="M570.8594,468.7969 L570.8594,471.2969 L575.1875,471.2969 L575.1875,470.375 Q575.1875,469.7656 575.4219,469.5 Q575.6719,469.2344 576.0469,469.2344 Q576.4219,469.2344 576.6563,469.5 Q576.8906,469.7656 576.8906,470.375 L576.8906,473 L568.8906,473 Q568.2656,473 568,472.7656 Q567.75,472.5313 567.75,472.1406 Q567.75,471.7656 568.0156,471.5313 Q568.2813,471.2969 568.8906,471.2969 L569.1563,471.2969 L569.1563,464.6406 L568.8906,464.6406 Q568.2656,464.6406 568,464.4063 Q567.75,464.1719 567.75,463.7813 Q567.75,463.4063 568,463.1719 Q568.2656,462.9375 568.8906,462.9375 L576.5156,462.9375 L576.5156,465.5313 Q576.5156,466.1406 576.2813,466.4063 Q576.0625,466.6563 575.6719,466.6563 Q575.2969,466.6563 575.0625,466.4063 Q574.8281,466.1406 574.8281,465.5313 L574.8281,464.6406 L570.8594,464.6406 L570.8594,467.0938 L572.3438,467.0938 Q572.3438,466.4375 572.4688,466.25 Q572.7344,465.8438 573.2031,465.8438 Q573.5781,465.8438 573.8125,466.1094 Q574.0469,466.3594 574.0469,466.9688 L574.0469,468.9375 Q574.0469,469.4844 573.9219,469.6719 Q573.6563,470.0625 573.2031,470.0625 Q572.7344,470.0625 572.4688,469.6563 Q572.3438,469.4688 572.3438,468.7969 L570.8594,468.7969 Z " fill="#000000"/><text fill="#000000" font-family="sans-serif" font-size="14" lengthAdjust="spacing" textLength="77.8135" x="586" y="473.7285">GameStatus</text><line style="stroke:#181818;stroke-width:0.5;" x1="558" x2="665.8135" y1="484" y2="484"/><text fill="#000000" font-family="sans-serif" font-size="14" lengthAdjust="spacing" textLength="62.248" x="563" y="502.5332">Mastered,</text><text fill="#000000" font-family="sans-serif" font-size="14" lengthAdjust="spacing" textLength="71.5928" x="563" y="520.1426">Completed,</text><text fill="#000000" font-family="sans-serif" font-size="14" lengthAdjust="spacing" textLength="56.8203" x="563" y="537.752">Ongoing,</text><text fill="#000000" font-family="sans-serif" font-size="14" lengthAdjust="spacing" textLength="51.3721" x="563" y="555.3613">Paused,</text><text fill="#000000" font-family="sans-serif" font-size="14" lengthAdjust="spacing" textLength="46.6963" x="563" y="572.9707">Played,</text><text fill="#000000" font-family="sans-serif" font-size="14" lengthAdjust="spacing" textLength="47.4688" x="563" y="590.5801">Replay,</text><text fill="#000000" font-family="sans-serif" font-size="14" lengthAdjust="spacing" textLength="70.041" x="563" y="608.1895">Unfinished,</text><text fill="#000000" font-family="sans-serif" font-size="14" lengthAdjust="spacing" textLength="49.0205" x="563" y="625.7988">Retired,</text><text fill="#000000" font-family="sans-serif" font-size="14" lengthAdjust="spacing" textLength="35.7861" x="563" y="643.4082">Tried,</text><text fill="#000000" font-family="sans-serif" font-size="14" lengthAdjust="spacing" textLength="57.5928" x="563" y="661.0176">Dropped,</text><text fill="#000000" font-family="sans-serif" font-size="14" lengthAdjust="spacing" textLength="79.3926" x="563" y="678.627">Ragequitted,</text><text fill="#000000" font-family="sans-serif" font-size="14" lengthAdjust="spacing" textLength="63.041" x="563" y="696.2363">Unplayed,</text><text fill="#000000" font-family="sans-serif" font-size="14" lengthAdjust="spacing" textLength="37.3584" x="563" y="713.8457">None,</text><line style="stroke:#181818;stroke-width:0.5;" x1="558" x2="665.8135" y1="720.9219" y2="720.9219"/></g><!--class Ownership--><g class="entity" data-entity="Ownership" data-source-line="37" data-uid="ent0019" id="entity_Ownership"><rect fill="#F1F1F1" height="188.875" rx="2.5" ry="2.5" style="stroke:#181818;stroke-width:0.5;" width="115.4688" x="9.5" y="203"/><ellipse cx="31.9483" cy="219" fill="#EB937F" rx="11" ry="11" style="stroke:#181818;stroke-width:1;"/><path d="M30.8077,219.7969 L30.8077,222.2969 L35.1358,222.2969 L35.1358,221.375 Q35.1358,220.7656 35.3702,220.5 Q35.6202,220.2344 35.9952,220.2344 Q36.3702,220.2344 36.6045,220.5 Q36.8389,220.7656 36.8389,221.375 L36.8389,224 L28.8389,224 Q28.2139,224 27.9483,223.7656 Q27.6983,223.5313 27.6983,223.1406 Q27.6983,222.7656 27.9639,222.5313 Q28.2295,222.2969 28.8389,222.2969 L29.1045,222.2969 L29.1045,215.6406 L28.8389,215.6406 Q28.2139,215.6406 27.9483,215.4063 Q27.6983,215.1719 27.6983,214.7813 Q27.6983,214.4063 27.9483,214.1719 Q28.2139,213.9375 28.8389,213.9375 L36.4639,213.9375 L36.4639,216.5313 Q36.4639,217.1406 36.2295,217.4063 Q36.0108,217.6563 35.6202,217.6563 Q35.2452,217.6563 35.0108,217.4063 Q34.7764,217.1406 34.7764,216.5313 L34.7764,215.6406 L30.8077,215.6406 L30.8077,218.0938 L32.292,218.0938 Q32.292,217.4375 32.417,217.25 Q32.6827,216.8438 33.1514,216.8438 Q33.5264,216.8438 33.7608,217.1094 Q33.9952,217.3594 33.9952,217.9688 L33.9952,219.9375 Q33.9952,220.4844 33.8702,220.6719 Q33.6045,221.0625 33.1514,221.0625 Q32.6827,221.0625 32.417,220.6563 Q32.292,220.4688 32.292,219.7969 L30.8077,219.7969 Z " fill="#000000"/><text fill="#000000" font-family="sans-serif" font-size="14" lengthAdjust="spacing" textLength="66.917" x="47.6035" y="224.7285">Ownership</text><line style="stroke:#181818;stroke-width:0.5;" x1="10.5" x2="123.9688" y1="235" y2="235"/><text fill="#000000" font-family="sans-serif" font-size="14" lengthAdjust="spacing" textLength="52.1104" x="15.5" y="253.5332">Wishlist,</text><text fill="#000000" font-family="sans-serif" font-size="14" lengthAdjust="spacing" textLength="48.248" x="15.5" y="271.1426">Owned,</text><text fill="#000000" font-family="sans-serif" font-size="14" lengthAdjust="spacing" textLength="70.8271" x="15.5" y="288.752">Household,</text><text fill="#000000" font-family="sans-serif" font-size="14" lengthAdjust="spacing" textLength="49.0342" x="15.5" y="306.3613">Shared,</text><text fill="#000000" font-family="sans-serif" font-size="14" lengthAdjust="spacing" textLength="80.9307" x="15.5" y="323.9707">Subscription,</text><text fill="#000000" font-family="sans-serif" font-size="14" lengthAdjust="spacing" textLength="63.8066" x="15.5" y="341.5801">Borrowed,</text><text fill="#000000" font-family="sans-serif" font-size="14" lengthAdjust="spacing" textLength="43.5654" x="15.5" y="359.1895">TriedIt,</text><text fill="#000000" font-family="sans-serif" font-size="14" lengthAdjust="spacing" textLength="103.4688" x="15.5" y="376.7988">FormerlyOwned,</text><line style="stroke:#181818;stroke-width:0.5;" x1="10.5" x2="123.9688" y1="383.875" y2="383.875"/></g><!--class CustomFolder--><g class="entity" data-entity="CustomFolder" data-source-line="47" data-uid="ent0020" id="entity_CustomFolder"><rect fill="#F1F1F1" height="83.2188" rx="2.5" ry="2.5" style="stroke:#181818;stroke-width:0.5;" width="225.9922" x="702" y="549"/><ellipse cx="766.7876" cy="565" fill="#ADD1B2" rx="11" ry="11" style="stroke:#181818;stroke-width:1;"/><path d="M769.5532,560.875 Q769.7095,560.6563 769.897,560.5469 Q770.0845,560.4375 770.3032,560.4375 Q770.6782,560.4375 770.9126,560.7031 Q771.147,560.9531 771.147,561.5625 L771.147,563.0156 Q771.147,563.625 770.9126,563.8906 Q770.6782,564.1563 770.3032,564.1563 Q769.9595,564.1563 769.7563,563.9531 Q769.5532,563.7656 769.4438,563.25 Q769.397,562.8906 769.2095,562.7031 Q768.8813,562.3281 768.272,562.1094 Q767.6626,561.8906 767.0376,561.8906 Q766.272,561.8906 765.6313,562.2188 Q765.0063,562.5469 764.5063,563.2969 Q764.022,564.0469 764.022,565.0781 L764.022,566.1719 Q764.022,567.4063 764.9126,568.2344 Q765.8032,569.0469 767.397,569.0469 Q768.3345,569.0469 768.9907,568.7969 Q769.3813,568.6406 769.8032,568.2031 Q770.0688,567.9375 770.2095,567.8594 Q770.3657,567.7813 770.5688,567.7813 Q770.897,567.7813 771.147,568.0469 Q771.4126,568.2969 771.4126,568.6406 Q771.4126,568.9844 771.0688,569.3906 Q770.5688,569.9688 769.772,570.2969 Q768.6938,570.75 767.397,570.75 Q765.8813,570.75 764.6782,570.125 Q763.6938,569.625 763.0063,568.5625 Q762.3188,567.4844 762.3188,566.2031 L762.3188,565.0469 Q762.3188,563.7188 762.9282,562.5781 Q763.5532,561.4219 764.647,560.8125 Q765.7407,560.1875 766.9751,560.1875 Q767.7095,560.1875 768.3501,560.3594 Q769.0063,560.5156 769.5532,560.875 Z " fill="#000000"/><text fill="#000000" font-family="sans-serif" font-size="14" lengthAdjust="spacing" textLength="87.917" x="787.2876" y="570.7285">CustomFolder</text><line style="stroke:#181818;stroke-width:0.5;" x1="703" x2="926.9922" y1="581" y2="581"/><ellipse cx="713" cy="595.3047" fill="none" rx="3" ry="3" style="stroke:#038048;stroke-width:1;"/><text fill="#000000" font-family="sans-serif" font-size="14" lengthAdjust="spacing" textLength="154.875" x="722" y="599.5332">FolderId : int &#171;get&#187; &#171;set&#187;</text><ellipse cx="713" cy="612.9141" fill="none" rx="3" ry="3" style="stroke:#038048;stroke-width:1;"/><text fill="#000000" font-family="sans-serif" font-size="14" lengthAdjust="spacing" textLength="199.9922" x="722" y="617.1426">FolderName : string &#171;get&#187; &#171;set&#187;</text><line style="stroke:#181818;stroke-width:0.5;" x1="703" x2="926.9922" y1="624.2188" y2="624.2188"/></g><!--class ICollection`1--><g class="entity" data-entity="ICollection.1" data-source-line="51" data-uid="ent0021" id="entity_ICollection.1"><rect fill="#F1F1F1" height="48" rx="2.5" ry="2.5" style="stroke:#181818;stroke-width:0.5;" width="121.1436" x="1561.5" y="806.5"/><ellipse cx="1576.5" cy="822.5" fill="#ADD1B2" rx="11" ry="11" style="stroke:#181818;stroke-width:1;"/><path d="M1579.2656,818.375 Q1579.4219,818.1563 1579.6094,818.0469 Q1579.7969,817.9375 1580.0156,817.9375 Q1580.3906,817.9375 1580.625,818.2031 Q1580.8594,818.4531 1580.8594,819.0625 L1580.8594,820.5156 Q1580.8594,821.125 1580.625,821.3906 Q1580.3906,821.6563 1580.0156,821.6563 Q1579.6719,821.6563 1579.4688,821.4531 Q1579.2656,821.2656 1579.1563,820.75 Q1579.1094,820.3906 1578.9219,820.2031 Q1578.5938,819.8281 1577.9844,819.6094 Q1577.375,819.3906 1576.75,819.3906 Q1575.9844,819.3906 1575.3438,819.7188 Q1574.7188,820.0469 1574.2188,820.7969 Q1573.7344,821.5469 1573.7344,822.5781 L1573.7344,823.6719 Q1573.7344,824.9063 1574.625,825.7344 Q1575.5156,826.5469 1577.1094,826.5469 Q1578.0469,826.5469 1578.7031,826.2969 Q1579.0938,826.1406 1579.5156,825.7031 Q1579.7813,825.4375 1579.9219,825.3594 Q1580.0781,825.2813 1580.2813,825.2813 Q1580.6094,825.2813 1580.8594,825.5469 Q1581.125,825.7969 1581.125,826.1406 Q1581.125,826.4844 1580.7813,826.8906 Q1580.2813,827.4688 1579.4844,827.7969 Q1578.4063,828.25 1577.1094,828.25 Q1575.5938,828.25 1574.3906,827.625 Q1573.4063,827.125 1572.7188,826.0625 Q1572.0313,824.9844 1572.0313,823.7031 L1572.0313,822.5469 Q1572.0313,821.2188 1572.6406,820.0781 Q1573.2656,818.9219 1574.3594,818.3125 Q1575.4531,817.6875 1576.6875,817.6875 Q1577.4219,817.6875 1578.0625,817.8594 Q1578.7188,818.0156 1579.2656,818.375 Z " fill="#000000"/><text fill="#000000" font-family="sans-serif" font-size="14" lengthAdjust="spacing" textLength="77.8135" x="1590.5" y="828.2285">ICollection`1</text><rect fill="#FFFFFF" height="17.0938" style="stroke:#181818;stroke-width:1;stroke-dasharray:2,2;" width="9.3301" x="1676.3135" y="803.5"/><text fill="#000000" font-family="sans-serif" font-size="12" font-style="italic" lengthAdjust="spacing" textLength="7.3301" x="1677.3135" y="816.957">T</text><line style="stroke:#181818;stroke-width:0.5;" x1="1562.5" x2="1681.6436" y1="838.5" y2="838.5"/><line style="stroke:#181818;stroke-width:0.5;" x1="1562.5" x2="1681.6436" y1="846.5" y2="846.5"/></g><!--class DateTimeOffset--><g class="entity" data-entity="DateTimeOffset" data-source-line="54" data-uid="ent0023" id="entity_DateTimeOffset"><rect fill="#F1F1F1" height="48" rx="2.5" ry="2.5" style="stroke:#181818;stroke-width:0.5;" width="130.0273" x="750" y="806.5"/><ellipse cx="765" cy="822.5" fill="#ADD1B2" rx="11" ry="11" style="stroke:#181818;stroke-width:1;"/><path d="M767.7656,818.375 Q767.9219,818.1563 768.1094,818.0469 Q768.2969,817.9375 768.5156,817.9375 Q768.8906,817.9375 769.125,818.2031 Q769.3594,818.4531 769.3594,819.0625 L769.3594,820.5156 Q769.3594,821.125 769.125,821.3906 Q768.8906,821.6563 768.5156,821.6563 Q768.1719,821.6563 767.9688,821.4531 Q767.7656,821.2656 767.6563,820.75 Q767.6094,820.3906 767.4219,820.2031 Q767.0938,819.8281 766.4844,819.6094 Q765.875,819.3906 765.25,819.3906 Q764.4844,819.3906 763.8438,819.7188 Q763.2188,820.0469 762.7188,820.7969 Q762.2344,821.5469 762.2344,822.5781 L762.2344,823.6719 Q762.2344,824.9063 763.125,825.7344 Q764.0156,826.5469 765.6094,826.5469 Q766.5469,826.5469 767.2031,826.2969 Q767.5938,826.1406 768.0156,825.7031 Q768.2813,825.4375 768.4219,825.3594 Q768.5781,825.2813 768.7813,825.2813 Q769.1094,825.2813 769.3594,825.5469 Q769.625,825.7969 769.625,826.1406 Q769.625,826.4844 769.2813,826.8906 Q768.7813,827.4688 767.9844,827.7969 Q766.9063,828.25 765.6094,828.25 Q764.0938,828.25 762.8906,827.625 Q761.9063,827.125 761.2188,826.0625 Q760.5313,824.9844 760.5313,823.7031 L760.5313,822.5469 Q760.5313,821.2188 761.1406,820.0781 Q761.7656,818.9219 762.8594,818.3125 Q763.9531,817.6875 765.1875,817.6875 Q765.9219,817.6875 766.5625,817.8594 Q767.2188,818.0156 767.7656,818.375 Z " fill="#000000"/><text fill="#000000" font-family="sans-serif" font-size="14" lengthAdjust="spacing" textLength="98.0273" x="779" y="828.2285">DateTimeOffset</text><line style="stroke:#181818;stroke-width:0.5;" x1="751" x2="879.0273" y1="838.5" y2="838.5"/><line style="stroke:#181818;stroke-width:0.5;" x1="751" x2="879.0273" y1="846.5" y2="846.5"/></g><!--class GamingConsole--><g class="entity" data-entity="GamingConsole" data-source-line="57" data-uid="ent0027" id="entity_GamingConsole"><rect fill="#F1F1F1" height="83.2188" rx="2.5" ry="2.5" style="stroke:#181818;stroke-width:0.5;" width="237.6748" x="1848" y="549"/><ellipse cx="1912.3945" cy="565" fill="#ADD1B2" rx="11" ry="11" style="stroke:#181818;stroke-width:1;"/><path d="M1915.1602,560.875 Q1915.3164,560.6563 1915.5039,560.5469 Q1915.6914,560.4375 1915.9102,560.4375 Q1916.2852,560.4375 1916.5195,560.7031 Q1916.7539,560.9531 1916.7539,561.5625 L1916.7539,563.0156 Q1916.7539,563.625 1916.5195,563.8906 Q1916.2852,564.1563 1915.9102,564.1563 Q1915.5664,564.1563 1915.3633,563.9531 Q1915.1602,563.7656 1915.0508,563.25 Q1915.0039,562.8906 1914.8164,562.7031 Q1914.4883,562.3281 1913.8789,562.1094 Q1913.2695,561.8906 1912.6445,561.8906 Q1911.8789,561.8906 1911.2383,562.2188 Q1910.6133,562.5469 1910.1133,563.2969 Q1909.6289,564.0469 1909.6289,565.0781 L1909.6289,566.1719 Q1909.6289,567.4063 1910.5195,568.2344 Q1911.4102,569.0469 1913.0039,569.0469 Q1913.9414,569.0469 1914.5977,568.7969 Q1914.9883,568.6406 1915.4102,568.2031 Q1915.6758,567.9375 1915.8164,567.8594 Q1915.9727,567.7813 1916.1758,567.7813 Q1916.5039,567.7813 1916.7539,568.0469 Q1917.0195,568.2969 1917.0195,568.6406 Q1917.0195,568.9844 1916.6758,569.3906 Q1916.1758,569.9688 1915.3789,570.2969 Q1914.3008,570.75 1913.0039,570.75 Q1911.4883,570.75 1910.2852,570.125 Q1909.3008,569.625 1908.6133,568.5625 Q1907.9258,567.4844 1907.9258,566.2031 L1907.9258,565.0469 Q1907.9258,563.7188 1908.5352,562.5781 Q1909.1602,561.4219 1910.2539,560.8125 Q1911.3477,560.1875 1912.582,560.1875 Q1913.3164,560.1875 1913.957,560.3594 Q1914.6133,560.5156 1915.1602,560.875 Z " fill="#000000"/><text fill="#000000" font-family="sans-serif" font-size="14" lengthAdjust="spacing" textLength="100.3857" x="1932.8945" y="570.7285">GamingConsole</text><line style="stroke:#181818;stroke-width:0.5;" x1="1849" x2="2084.6748" y1="581" y2="581"/><ellipse cx="1859" cy="595.3047" fill="none" rx="3" ry="3" style="stroke:#038048;stroke-width:1;"/><text fill="#000000" font-family="sans-serif" font-size="14" lengthAdjust="spacing" textLength="166.5576" x="1868" y="599.5332">ConsoleId : int &#171;get&#187; &#171;set&#187;</text><ellipse cx="1859" cy="612.9141" fill="none" rx="3" ry="3" style="stroke:#038048;stroke-width:1;"/><text fill="#000000" font-family="sans-serif" font-size="14" lengthAdjust="spacing" textLength="211.6748" x="1868" y="617.1426">ConsoleName : string &#171;get&#187; &#171;set&#187;</text><line style="stroke:#181818;stroke-width:0.5;" x1="1849" x2="2084.6748" y1="624.2188" y2="624.2188"/></g><!--class DateOnly--><g class="entity" data-entity="DateOnly" data-source-line="63" data-uid="ent0028" id="entity_DateOnly"><rect fill="#F1F1F1" height="48" rx="2.5" ry="2.5" style="stroke:#181818;stroke-width:0.5;" width="90.3584" x="1718" y="806.5"/><ellipse cx="1733" cy="822.5" fill="#ADD1B2" rx="11" ry="11" style="stroke:#181818;stroke-width:1;"/><path d="M1735.7656,818.375 Q1735.9219,818.1563 1736.1094,818.0469 Q1736.2969,817.9375 1736.5156,817.9375 Q1736.8906,817.9375 1737.125,818.2031 Q1737.3594,818.4531 1737.3594,819.0625 L1737.3594,820.5156 Q1737.3594,821.125 1737.125,821.3906 Q1736.8906,821.6563 1736.5156,821.6563 Q1736.1719,821.6563 1735.9688,821.4531 Q1735.7656,821.2656 1735.6563,820.75 Q1735.6094,820.3906 1735.4219,820.2031 Q1735.0938,819.8281 1734.4844,819.6094 Q1733.875,819.3906 1733.25,819.3906 Q1732.4844,819.3906 1731.8438,819.7188 Q1731.2188,820.0469 1730.7188,820.7969 Q1730.2344,821.5469 1730.2344,822.5781 L1730.2344,823.6719 Q1730.2344,824.9063 1731.125,825.7344 Q1732.0156,826.5469 1733.6094,826.5469 Q1734.5469,826.5469 1735.2031,826.2969 Q1735.5938,826.1406 1736.0156,825.7031 Q1736.2813,825.4375 1736.4219,825.3594 Q1736.5781,825.2813 1736.7813,825.2813 Q1737.1094,825.2813 1737.3594,825.5469 Q1737.625,825.7969 1737.625,826.1406 Q1737.625,826.4844 1737.2813,826.8906 Q1736.7813,827.4688 1735.9844,827.7969 Q1734.9063,828.25 1733.6094,828.25 Q1732.0938,828.25 1730.8906,827.625 Q1729.9063,827.125 1729.2188,826.0625 Q1728.5313,824.9844 1728.5313,823.7031 L1728.5313,822.5469 Q1728.5313,821.2188 1729.1406,820.0781 Q1729.7656,818.9219 1730.8594,818.3125 Q1731.9531,817.6875 1733.1875,817.6875 Q1733.9219,817.6875 1734.5625,817.8594 Q1735.2188,818.0156 1735.7656,818.375 Z " fill="#000000"/><text fill="#000000" font-family="sans-serif" font-size="14" lengthAdjust="spacing" textLength="58.3584" x="1747" y="828.2285">DateOnly</text><line style="stroke:#181818;stroke-width:0.5;" x1="1719" x2="1807.3584" y1="838.5" y2="838.5"/><line style="stroke:#181818;stroke-width:0.5;" x1="1719" x2="1807.3584" y1="846.5" y2="846.5"/></g><!--class Publisher--><g class="entity" data-entity="Publisher" data-source-line="64" data-uid="ent0030" id="entity_Publisher"><rect fill="#F1F1F1" height="83.2188" rx="2.5" ry="2.5" style="stroke:#181818;stroke-width:0.5;" width="246.2266" x="1843" y="789"/><ellipse cx="1932.6807" cy="805" fill="#ADD1B2" rx="11" ry="11" style="stroke:#181818;stroke-width:1;"/><path d="M1935.4463,800.875 Q1935.6025,800.6563 1935.79,800.5469 Q1935.9775,800.4375 1936.1963,800.4375 Q1936.5713,800.4375 1936.8057,800.7031 Q1937.04,800.9531 1937.04,801.5625 L1937.04,803.0156 Q1937.04,803.625 1936.8057,803.8906 Q1936.5713,804.1563 1936.1963,804.1563 Q1935.8525,804.1563 1935.6494,803.9531 Q1935.4463,803.7656 1935.3369,803.25 Q1935.29,802.8906 1935.1025,802.7031 Q1934.7744,802.3281 1934.165,802.1094 Q1933.5557,801.8906 1932.9307,801.8906 Q1932.165,801.8906 1931.5244,802.2188 Q1930.8994,802.5469 1930.3994,803.2969 Q1929.915,804.0469 1929.915,805.0781 L1929.915,806.1719 Q1929.915,807.4063 1930.8057,808.2344 Q1931.6963,809.0469 1933.29,809.0469 Q1934.2275,809.0469 1934.8838,808.7969 Q1935.2744,808.6406 1935.6963,808.2031 Q1935.9619,807.9375 1936.1025,807.8594 Q1936.2588,807.7813 1936.4619,807.7813 Q1936.79,807.7813 1937.04,808.0469 Q1937.3057,808.2969 1937.3057,808.6406 Q1937.3057,808.9844 1936.9619,809.3906 Q1936.4619,809.9688 1935.665,810.2969 Q1934.5869,810.75 1933.29,810.75 Q1931.7744,810.75 1930.5713,810.125 Q1929.5869,809.625 1928.8994,808.5625 Q1928.2119,807.4844 1928.2119,806.2031 L1928.2119,805.0469 Q1928.2119,803.7188 1928.8213,802.5781 Q1929.4463,801.4219 1930.54,800.8125 Q1931.6338,800.1875 1932.8682,800.1875 Q1933.6025,800.1875 1934.2432,800.3594 Q1934.8994,800.5156 1935.4463,800.875 Z " fill="#000000"/><text fill="#000000" font-family="sans-serif" font-size="14" lengthAdjust="spacing" textLength="58.3652" x="1953.1807" y="810.7285">Publisher</text><line style="stroke:#181818;stroke-width:0.5;" x1="1844" x2="2088.2266" y1="821" y2="821"/><ellipse cx="1854" cy="835.3047" fill="none" rx="3" ry="3" style="stroke:#038048;stroke-width:1;"/><text fill="#000000" font-family="sans-serif" font-size="14" lengthAdjust="spacing" textLength="175.1094" x="1863" y="839.5332">CompanyId : int &#171;get&#187; &#171;set&#187;</text><ellipse cx="1854" cy="852.9141" fill="none" rx="3" ry="3" style="stroke:#038048;stroke-width:1;"/><text fill="#000000" font-family="sans-serif" font-size="14" lengthAdjust="spacing" textLength="220.2266" x="1863" y="857.1426">CompanyName : string &#171;get&#187; &#171;set&#187;</text><line style="stroke:#181818;stroke-width:0.5;" x1="1844" x2="2088.2266" y1="864.2188" y2="864.2188"/></g><!--class Review--><g class="entity" data-entity="Review" data-source-line="66" data-uid="ent0033" id="entity_Review"><rect fill="#F1F1F1" height="136.0469" rx="2.5" ry="2.5" style="stroke:#181818;stroke-width:0.5;" width="261.0264" x="1570.5" y="7"/><ellipse cx="1673.8115" cy="23" fill="#ADD1B2" rx="11" ry="11" style="stroke:#181818;stroke-width:1;"/><path d="M1676.5771,18.875 Q1676.7334,18.6563 1676.9209,18.5469 Q1677.1084,18.4375 1677.3271,18.4375 Q1677.7021,18.4375 1677.9365,18.7031 Q1678.1709,18.9531 1678.1709,19.5625 L1678.1709,21.0156 Q1678.1709,21.625 1677.9365,21.8906 Q1677.7021,22.1563 1677.3271,22.1563 Q1676.9834,22.1563 1676.7803,21.9531 Q1676.5771,21.7656 1676.4678,21.25 Q1676.4209,20.8906 1676.2334,20.7031 Q1675.9053,20.3281 1675.2959,20.1094 Q1674.6865,19.8906 1674.0615,19.8906 Q1673.2959,19.8906 1672.6553,20.2188 Q1672.0303,20.5469 1671.5303,21.2969 Q1671.0459,22.0469 1671.0459,23.0781 L1671.0459,24.1719 Q1671.0459,25.4063 1671.9365,26.2344 Q1672.8271,27.0469 1674.4209,27.0469 Q1675.3584,27.0469 1676.0146,26.7969 Q1676.4053,26.6406 1676.8271,26.2031 Q1677.0928,25.9375 1677.2334,25.8594 Q1677.3896,25.7813 1677.5928,25.7813 Q1677.9209,25.7813 1678.1709,26.0469 Q1678.4365,26.2969 1678.4365,26.6406 Q1678.4365,26.9844 1678.0928,27.3906 Q1677.5928,27.9688 1676.7959,28.2969 Q1675.7178,28.75 1674.4209,28.75 Q1672.9053,28.75 1671.7021,28.125 Q1670.7178,27.625 1670.0303,26.5625 Q1669.3428,25.4844 1669.3428,24.2031 L1669.3428,23.0469 Q1669.3428,21.7188 1669.9521,20.5781 Q1670.5771,19.4219 1671.6709,18.8125 Q1672.7646,18.1875 1673.999,18.1875 Q1674.7334,18.1875 1675.374,18.3594 Q1676.0303,18.5156 1676.5771,18.875 Z " fill="#000000"/><text fill="#000000" font-family="sans-serif" font-size="14" lengthAdjust="spacing" textLength="45.9033" x="1694.3115" y="28.7285">Review</text><line style="stroke:#181818;stroke-width:0.5;" x1="1571.5" x2="1830.5264" y1="39" y2="39"/><ellipse cx="1581.5" cy="53.3047" fill="none" rx="3" ry="3" style="stroke:#038048;stroke-width:1;"/><text fill="#000000" font-family="sans-serif" font-size="14" lengthAdjust="spacing" textLength="161.0957" x="1590.5" y="57.5332">ReviewId : int &#171;get&#187; &#171;set&#187;</text><ellipse cx="1581.5" cy="70.9141" fill="none" rx="3" ry="3" style="stroke:#038048;stroke-width:1;"/><text fill="#000000" font-family="sans-serif" font-size="14" lengthAdjust="spacing" textLength="159.5713" x="1590.5" y="75.1426">Vote : double &#171;get&#187; &#171;set&#187;</text><ellipse cx="1581.5" cy="88.5234" fill="none" rx="3" ry="3" style="stroke:#038048;stroke-width:1;"/><text fill="#000000" font-family="sans-serif" font-size="14" lengthAdjust="spacing" textLength="195.3164" x="1590.5" y="92.752">ReviewTitle : string &#171;get&#187; &#171;set&#187;</text><ellipse cx="1581.5" cy="106.1328" fill="none" rx="3" ry="3" style="stroke:#038048;stroke-width:1;"/><text fill="#000000" font-family="sans-serif" font-size="14" lengthAdjust="spacing" textLength="217.9023" x="1590.5" y="110.3613">ReviewContent : string &#171;get&#187; &#171;set&#187;</text><ellipse cx="1581.5" cy="123.7422" fill="none" rx="3" ry="3" style="stroke:#038048;stroke-width:1;"/><text fill="#000000" font-family="sans-serif" font-size="14" lengthAdjust="spacing" textLength="235.0264" x="1590.5" y="127.9707">VideogameUserId : string &#171;get&#187; &#171;set&#187;</text><line style="stroke:#181818;stroke-width:0.5;" x1="1571.5" x2="1830.5264" y1="135.0469" y2="135.0469"/></g><!--class VideogameUser--><g class="entity" data-entity="VideogameUser" data-source-line="73" data-uid="ent0034" id="entity_VideogameUser"><rect fill="#F1F1F1" height="136.0469" rx="2.5" ry="2.5" style="stroke:#181818;stroke-width:0.5;" width="258.3262" x="1572" y="229.5"/><ellipse cx="1646.7202" cy="245.5" fill="#ADD1B2" rx="11" ry="11" style="stroke:#181818;stroke-width:1;"/><path d="M1649.4858,241.375 Q1649.6421,241.1563 1649.8296,241.0469 Q1650.0171,240.9375 1650.2358,240.9375 Q1650.6108,240.9375 1650.8452,241.2031 Q1651.0796,241.4531 1651.0796,242.0625 L1651.0796,243.5156 Q1651.0796,244.125 1650.8452,244.3906 Q1650.6108,244.6563 1650.2358,244.6563 Q1649.8921,244.6563 1649.689,244.4531 Q1649.4858,244.2656 1649.3765,243.75 Q1649.3296,243.3906 1649.1421,243.2031 Q1648.814,242.8281 1648.2046,242.6094 Q1647.5952,242.3906 1646.9702,242.3906 Q1646.2046,242.3906 1645.564,242.7188 Q1644.939,243.0469 1644.439,243.7969 Q1643.9546,244.5469 1643.9546,245.5781 L1643.9546,246.6719 Q1643.9546,247.9063 1644.8452,248.7344 Q1645.7358,249.5469 1647.3296,249.5469 Q1648.2671,249.5469 1648.9233,249.2969 Q1649.314,249.1406 1649.7358,248.7031 Q1650.0015,248.4375 1650.1421,248.3594 Q1650.2983,248.2813 1650.5015,248.2813 Q1650.8296,248.2813 1651.0796,248.5469 Q1651.3452,248.7969 1651.3452,249.1406 Q1651.3452,249.4844 1651.0015,249.8906 Q1650.5015,250.4688 1649.7046,250.7969 Q1648.6265,251.25 1647.3296,251.25 Q1645.814,251.25 1644.6108,250.625 Q1643.6265,250.125 1642.939,249.0625 Q1642.2515,247.9844 1642.2515,246.7031 L1642.2515,245.5469 Q1642.2515,244.2188 1642.8608,243.0781 Q1643.4858,241.9219 1644.5796,241.3125 Q1645.6733,240.6875 1646.9077,240.6875 Q1647.6421,240.6875 1648.2827,240.8594 Q1648.939,241.0156 1649.4858,241.375 Z " fill="#000000"/><text fill="#000000" font-family="sans-serif" font-size="14" lengthAdjust="spacing" textLength="100.3857" x="1667.2202" y="251.2285">VideogameUser</text><line style="stroke:#181818;stroke-width:0.5;" x1="1573" x2="1829.3262" y1="261.5" y2="261.5"/><ellipse cx="1583" cy="275.8047" fill="none" rx="3" ry="3" style="stroke:#038048;stroke-width:1;"/><text fill="#000000" font-family="sans-serif" font-size="14" lengthAdjust="spacing" textLength="215.5781" x="1592" y="280.0332">VideogameUserId : int &#171;get&#187; &#171;set&#187;</text><ellipse cx="1583" cy="293.4141" fill="none" rx="3" ry="3" style="stroke:#038048;stroke-width:1;"/><text fill="#000000" font-family="sans-serif" font-size="14" lengthAdjust="spacing" textLength="186.0195" x="1592" y="297.6426">VideogameId : int &#171;get&#187; &#171;set&#187;</text><ellipse cx="1583" cy="311.0234" fill="none" rx="3" ry="3" style="stroke:#038048;stroke-width:1;"/><text fill="#000000" font-family="sans-serif" font-size="14" lengthAdjust="spacing" textLength="164.1992" x="1592" y="315.252">UserId : string &#171;get&#187; &#171;set&#187;</text><ellipse cx="1583" cy="328.6328" fill="none" rx="3" ry="3" style="stroke:#038048;stroke-width:1;"/><text fill="#000000" font-family="sans-serif" font-size="14" lengthAdjust="spacing" textLength="232.3262" x="1592" y="332.8613">BetaTested : bool &#171;get&#187; &#171;set&#187; = false</text><ellipse cx="1583" cy="346.2422" fill="none" rx="3" ry="3" style="stroke:#038048;stroke-width:1;"/><text fill="#000000" font-family="sans-serif" font-size="14" lengthAdjust="spacing" textLength="209.3301" x="1592" y="350.4707">TimesCompleted : int &#171;get&#187; &#171;set&#187;</text><line style="stroke:#181818;stroke-width:0.5;" x1="1573" x2="1829.3262" y1="357.5469" y2="357.5469"/></g><!--class User--><g class="entity" data-entity="User" data-source-line="74" data-uid="ent0036" id="entity_User"><rect fill="#F1F1F1" height="83.2188" rx="2.5" ry="2.5" style="stroke:#181818;stroke-width:0.5;" width="215.8682" x="2404" y="549"/><ellipse cx="2492.9048" cy="565" fill="#ADD1B2" rx="11" ry="11" style="stroke:#181818;stroke-width:1;"/><path d="M2495.6704,560.875 Q2495.8267,560.6563 2496.0142,560.5469 Q2496.2017,560.4375 2496.4204,560.4375 Q2496.7954,560.4375 2497.0298,560.7031 Q2497.2642,560.9531 2497.2642,561.5625 L2497.2642,563.0156 Q2497.2642,563.625 2497.0298,563.8906 Q2496.7954,564.1563 2496.4204,564.1563 Q2496.0767,564.1563 2495.8735,563.9531 Q2495.6704,563.7656 2495.561,563.25 Q2495.5142,562.8906 2495.3267,562.7031 Q2494.9985,562.3281 2494.3892,562.1094 Q2493.7798,561.8906 2493.1548,561.8906 Q2492.3892,561.8906 2491.7485,562.2188 Q2491.1235,562.5469 2490.6235,563.2969 Q2490.1392,564.0469 2490.1392,565.0781 L2490.1392,566.1719 Q2490.1392,567.4063 2491.0298,568.2344 Q2491.9204,569.0469 2493.5142,569.0469 Q2494.4517,569.0469 2495.1079,568.7969 Q2495.4985,568.6406 2495.9204,568.2031 Q2496.186,567.9375 2496.3267,567.8594 Q2496.4829,567.7813 2496.686,567.7813 Q2497.0142,567.7813 2497.2642,568.0469 Q2497.5298,568.2969 2497.5298,568.6406 Q2497.5298,568.9844 2497.186,569.3906 Q2496.686,569.9688 2495.8892,570.2969 Q2494.811,570.75 2493.5142,570.75 Q2491.9985,570.75 2490.7954,570.125 Q2489.811,569.625 2489.1235,568.5625 Q2488.436,567.4844 2488.436,566.2031 L2488.436,565.0469 Q2488.436,563.7188 2489.0454,562.5781 Q2489.6704,561.4219 2490.7642,560.8125 Q2491.8579,560.1875 2493.0923,560.1875 Q2493.8267,560.1875 2494.4673,560.3594 Q2495.1235,560.5156 2495.6704,560.875 Z " fill="#000000"/><text fill="#000000" font-family="sans-serif" font-size="14" lengthAdjust="spacing" textLength="29.5586" x="2513.4048" y="570.7285">User</text><line style="stroke:#181818;stroke-width:0.5;" x1="2405" x2="2618.8682" y1="581" y2="581"/><ellipse cx="2415" cy="595.3047" fill="none" rx="3" ry="3" style="stroke:#038048;stroke-width:1;"/><text fill="#000000" font-family="sans-serif" font-size="14" lengthAdjust="spacing" textLength="163.4199" x="2424" y="599.5332">UserId : string &#171;get&#187; &#171;init&#187;</text><ellipse cx="2415" cy="612.9141" fill="none" rx="3" ry="3" style="stroke:#038048;stroke-width:1;"/><text fill="#000000" font-family="sans-serif" font-size="14" lengthAdjust="spacing" textLength="189.8682" x="2424" y="617.1426">UserName : string &#171;get&#187; &#171;set&#187;</text><line style="stroke:#181818;stroke-width:0.5;" x1="2405" x2="2618.8682" y1="624.2188" y2="624.2188"/></g><!--class DateTime--><g class="entity" data-entity="DateTime" data-source-line="80" data-uid="ent0037" id="entity_DateTime"><rect fill="#F1F1F1" height="48" rx="2.5" ry="2.5" style="stroke:#181818;stroke-width:0.5;" width="92.6826" x="2476.5" y="806.5"/><ellipse cx="2491.5" cy="822.5" fill="#ADD1B2" rx="11" ry="11" style="stroke:#181818;stroke-width:1;"/><path d="M2494.2656,818.375 Q2494.4219,818.1563 2494.6094,818.0469 Q2494.7969,817.9375 2495.0156,817.9375 Q2495.3906,817.9375 2495.625,818.2031 Q2495.8594,818.4531 2495.8594,819.0625 L2495.8594,820.5156 Q2495.8594,821.125 2495.625,821.3906 Q2495.3906,821.6563 2495.0156,821.6563 Q2494.6719,821.6563 2494.4688,821.4531 Q2494.2656,821.2656 2494.1563,820.75 Q2494.1094,820.3906 2493.9219,820.2031 Q2493.5938,819.8281 2492.9844,819.6094 Q2492.375,819.3906 2491.75,819.3906 Q2490.9844,819.3906 2490.3438,819.7188 Q2489.7188,820.0469 2489.2188,820.7969 Q2488.7344,821.5469 2488.7344,822.5781 L2488.7344,823.6719 Q2488.7344,824.9063 2489.625,825.7344 Q2490.5156,826.5469 2492.1094,826.5469 Q2493.0469,826.5469 2493.7031,826.2969 Q2494.0938,826.1406 2494.5156,825.7031 Q2494.7813,825.4375 2494.9219,825.3594 Q2495.0781,825.2813 2495.2813,825.2813 Q2495.6094,825.2813 2495.8594,825.5469 Q2496.125,825.7969 2496.125,826.1406 Q2496.125,826.4844 2495.7813,826.8906 Q2495.2813,827.4688 2494.4844,827.7969 Q2493.4063,828.25 2492.1094,828.25 Q2490.5938,828.25 2489.3906,827.625 Q2488.4063,827.125 2487.7188,826.0625 Q2487.0313,824.9844 2487.0313,823.7031 L2487.0313,822.5469 Q2487.0313,821.2188 2487.6406,820.0781 Q2488.2656,818.9219 2489.3594,818.3125 Q2490.4531,817.6875 2491.6875,817.6875 Q2492.4219,817.6875 2493.0625,817.8594 Q2493.7188,818.0156 2494.2656,818.375 Z " fill="#000000"/><text fill="#000000" font-family="sans-serif" font-size="14" lengthAdjust="spacing" textLength="60.6826" x="2505.5" y="828.2285">DateTime</text><line style="stroke:#181818;stroke-width:0.5;" x1="2477.5" x2="2568.1826" y1="838.5" y2="838.5"/><line style="stroke:#181818;stroke-width:0.5;" x1="2477.5" x2="2568.1826" y1="846.5" y2="846.5"/></g><!--class Company--><g class="entity" data-entity="Company" data-source-line="83" data-uid="ent0041" id="entity_Company"><rect fill="#F1F1F1" height="83.2188" rx="2.5" ry="2.5" style="stroke:#181818;stroke-width:0.5;" width="246.2266" x="2123" y="549"/><ellipse cx="2211.9048" cy="565" fill="#A9DCDF" rx="11" ry="11" style="stroke:#181818;stroke-width:1;"/><path d="M2214.0923,566.7656 L2209.9517,566.7656 L2209.5298,567.7969 L2209.9517,567.7969 Q2210.561,567.7969 2210.8267,568.0313 Q2211.0923,568.2656 2211.0923,568.6563 Q2211.0923,569.0313 2210.8267,569.2656 Q2210.561,569.5 2209.9517,569.5 L2207.6548,569.5 Q2207.0454,569.5 2206.7954,569.2656 Q2206.5298,569.0313 2206.5298,568.6406 Q2206.5298,568.2656 2206.811,568.0313 Q2207.0767,567.7813 2207.7017,567.7969 L2210.3735,561.1406 L2209.2642,561.1406 Q2208.6548,561.1406 2208.3892,560.9063 Q2208.1235,560.6719 2208.1235,560.2813 Q2208.1235,559.9063 2208.3892,559.6719 Q2208.6548,559.4375 2209.2642,559.4375 L2212.936,559.4375 L2216.3267,567.7969 Q2216.9204,567.7969 2217.1079,567.9375 Q2217.4985,568.2031 2217.4985,568.6563 Q2217.4985,569.0313 2217.2329,569.2656 Q2216.9829,569.5 2216.3735,569.5 L2214.0767,569.5 Q2213.4673,569.5 2213.2017,569.2656 Q2212.936,569.0313 2212.936,568.6406 Q2212.936,568.2656 2213.2017,568.0313 Q2213.4673,567.7969 2214.0767,567.7969 L2214.4985,567.7969 L2214.0923,566.7656 Z M2213.3735,565.0625 L2212.0142,561.6875 L2210.6392,565.0625 L2213.3735,565.0625 Z " fill="#000000"/><text fill="#000000" font-family="sans-serif" font-size="14" font-style="italic" lengthAdjust="spacing" textLength="59.917" x="2232.4048" y="570.7285">Company</text><line style="stroke:#181818;stroke-width:0.5;" x1="2124" x2="2368.2266" y1="581" y2="581"/><ellipse cx="2134" cy="595.3047" fill="none" rx="3" ry="3" style="stroke:#038048;stroke-width:1;"/><text fill="#000000" font-family="sans-serif" font-size="14" lengthAdjust="spacing" textLength="175.1094" x="2143" y="599.5332">CompanyId : int &#171;get&#187; &#171;set&#187;</text><ellipse cx="2134" cy="612.9141" fill="none" rx="3" ry="3" style="stroke:#038048;stroke-width:1;"/><text fill="#000000" font-family="sans-serif" font-size="14" lengthAdjust="spacing" textLength="220.2266" x="2143" y="617.1426">CompanyName : string &#171;get&#187; &#171;set&#187;</text><line style="stroke:#181818;stroke-width:0.5;" x1="2124" x2="2368.2266" y1="624.2188" y2="624.2188"/></g><!--class List`1--><g class="entity" data-entity="List.1" data-source-line="87" data-uid="ent0042" id="entity_List.1"><rect fill="#F1F1F1" height="48" rx="2.5" ry="2.5" style="stroke:#181818;stroke-width:0.5;" width="77.5645" x="2067" y="932"/><ellipse cx="2082" cy="948" fill="#ADD1B2" rx="11" ry="11" style="stroke:#181818;stroke-width:1;"/><path d="M2084.7656,943.875 Q2084.9219,943.6563 2085.1094,943.5469 Q2085.2969,943.4375 2085.5156,943.4375 Q2085.8906,943.4375 2086.125,943.7031 Q2086.3594,943.9531 2086.3594,944.5625 L2086.3594,946.0156 Q2086.3594,946.625 2086.125,946.8906 Q2085.8906,947.1563 2085.5156,947.1563 Q2085.1719,947.1563 2084.9688,946.9531 Q2084.7656,946.7656 2084.6563,946.25 Q2084.6094,945.8906 2084.4219,945.7031 Q2084.0938,945.3281 2083.4844,945.1094 Q2082.875,944.8906 2082.25,944.8906 Q2081.4844,944.8906 2080.8438,945.2188 Q2080.2188,945.5469 2079.7188,946.2969 Q2079.2344,947.0469 2079.2344,948.0781 L2079.2344,949.1719 Q2079.2344,950.4063 2080.125,951.2344 Q2081.0156,952.0469 2082.6094,952.0469 Q2083.5469,952.0469 2084.2031,951.7969 Q2084.5938,951.6406 2085.0156,951.2031 Q2085.2813,950.9375 2085.4219,950.8594 Q2085.5781,950.7813 2085.7813,950.7813 Q2086.1094,950.7813 2086.3594,951.0469 Q2086.625,951.2969 2086.625,951.6406 Q2086.625,951.9844 2086.2813,952.3906 Q2085.7813,952.9688 2084.9844,953.2969 Q2083.9063,953.75 2082.6094,953.75 Q2081.0938,953.75 2079.8906,953.125 Q2078.9063,952.625 2078.2188,951.5625 Q2077.5313,950.4844 2077.5313,949.2031 L2077.5313,948.0469 Q2077.5313,946.7188 2078.1406,945.5781 Q2078.7656,944.4219 2079.8594,943.8125 Q2080.9531,943.1875 2082.1875,943.1875 Q2082.9219,943.1875 2083.5625,943.3594 Q2084.2188,943.5156 2084.7656,943.875 Z " fill="#000000"/><text fill="#000000" font-family="sans-serif" font-size="14" lengthAdjust="spacing" textLength="34.2344" x="2096" y="953.7285">List`1</text><rect fill="#FFFFFF" height="17.0938" style="stroke:#181818;stroke-width:1;stroke-dasharray:2,2;" width="9.3301" x="2138.2344" y="929"/><text fill="#000000" font-family="sans-serif" font-size="12" font-style="italic" lengthAdjust="spacing" textLength="7.3301" x="2139.2344" y="942.457">T</text><line style="stroke:#181818;stroke-width:0.5;" x1="2068" x2="2143.5645" y1="964" y2="964"/><line style="stroke:#181818;stroke-width:0.5;" x1="2068" x2="2143.5645" y1="972" y2="972"/></g><!--class Developer--><g class="entity" data-entity="Developer" data-source-line="90" data-uid="ent0044" id="entity_Developer"><rect fill="#F1F1F1" height="83.2188" rx="2.5" ry="2.5" style="stroke:#181818;stroke-width:0.5;" width="246.2266" x="2124" y="789"/><ellipse cx="2210.9565" cy="805" fill="#ADD1B2" rx="11" ry="11" style="stroke:#181818;stroke-width:1;"/><path d="M2213.7222,800.875 Q2213.8784,800.6563 2214.0659,800.5469 Q2214.2534,800.4375 2214.4722,800.4375 Q2214.8472,800.4375 2215.0815,800.7031 Q2215.3159,800.9531 2215.3159,801.5625 L2215.3159,803.0156 Q2215.3159,803.625 2215.0815,803.8906 Q2214.8472,804.1563 2214.4722,804.1563 Q2214.1284,804.1563 2213.9253,803.9531 Q2213.7222,803.7656 2213.6128,803.25 Q2213.5659,802.8906 2213.3784,802.7031 Q2213.0503,802.3281 2212.4409,802.1094 Q2211.8315,801.8906 2211.2065,801.8906 Q2210.4409,801.8906 2209.8003,802.2188 Q2209.1753,802.5469 2208.6753,803.2969 Q2208.1909,804.0469 2208.1909,805.0781 L2208.1909,806.1719 Q2208.1909,807.4063 2209.0815,808.2344 Q2209.9722,809.0469 2211.5659,809.0469 Q2212.5034,809.0469 2213.1597,808.7969 Q2213.5503,808.6406 2213.9722,808.2031 Q2214.2378,807.9375 2214.3784,807.8594 Q2214.5347,807.7813 2214.7378,807.7813 Q2215.0659,807.7813 2215.3159,808.0469 Q2215.5815,808.2969 2215.5815,808.6406 Q2215.5815,808.9844 2215.2378,809.3906 Q2214.7378,809.9688 2213.9409,810.2969 Q2212.8628,810.75 2211.5659,810.75 Q2210.0503,810.75 2208.8472,810.125 Q2207.8628,809.625 2207.1753,808.5625 Q2206.4878,807.4844 2206.4878,806.2031 L2206.4878,805.0469 Q2206.4878,803.7188 2207.0972,802.5781 Q2207.7222,801.4219 2208.8159,800.8125 Q2209.9097,800.1875 2211.144,800.1875 Q2211.8784,800.1875 2212.519,800.3594 Q2213.1753,800.5156 2213.7222,800.875 Z " fill="#000000"/><text fill="#000000" font-family="sans-serif" font-size="14" lengthAdjust="spacing" textLength="63.8135" x="2231.4565" y="810.7285">Developer</text><line style="stroke:#181818;stroke-width:0.5;" x1="2125" x2="2369.2266" y1="821" y2="821"/><ellipse cx="2135" cy="835.3047" fill="none" rx="3" ry="3" style="stroke:#038048;stroke-width:1;"/><text fill="#000000" font-family="sans-serif" font-size="14" lengthAdjust="spacing" textLength="175.1094" x="2144" y="839.5332">CompanyId : int &#171;get&#187; &#171;set&#187;</text><ellipse cx="2135" cy="852.9141" fill="none" rx="3" ry="3" style="stroke:#038048;stroke-width:1;"/><text fill="#000000" font-family="sans-serif" font-size="14" lengthAdjust="spacing" textLength="220.2266" x="2144" y="857.1426">CompanyName : string &#171;get&#187; &#171;set&#187;</text><line style="stroke:#181818;stroke-width:0.5;" x1="2125" x2="2369.2266" y1="864.2188" y2="864.2188"/></g><!--class GameMode--><g class="entity" data-entity="GameMode" data-source-line="107" data-uid="ent0050" id="entity_GameMode"><rect fill="#F1F1F1" height="83.2188" rx="2.5" ry="2.5" style="stroke:#181818;stroke-width:0.5;" width="259.4541" x="1034.5" y="549"/><ellipse cx="1123.4048" cy="565" fill="#ADD1B2" rx="11" ry="11" style="stroke:#181818;stroke-width:1;"/><path d="M1126.1704,560.875 Q1126.3267,560.6563 1126.5142,560.5469 Q1126.7017,560.4375 1126.9204,560.4375 Q1127.2954,560.4375 1127.5298,560.7031 Q1127.7642,560.9531 1127.7642,561.5625 L1127.7642,563.0156 Q1127.7642,563.625 1127.5298,563.8906 Q1127.2954,564.1563 1126.9204,564.1563 Q1126.5767,564.1563 1126.3735,563.9531 Q1126.1704,563.7656 1126.061,563.25 Q1126.0142,562.8906 1125.8267,562.7031 Q1125.4985,562.3281 1124.8892,562.1094 Q1124.2798,561.8906 1123.6548,561.8906 Q1122.8892,561.8906 1122.2485,562.2188 Q1121.6235,562.5469 1121.1235,563.2969 Q1120.6392,564.0469 1120.6392,565.0781 L1120.6392,566.1719 Q1120.6392,567.4063 1121.5298,568.2344 Q1122.4204,569.0469 1124.0142,569.0469 Q1124.9517,569.0469 1125.6079,568.7969 Q1125.9985,568.6406 1126.4204,568.2031 Q1126.686,567.9375 1126.8267,567.8594 Q1126.9829,567.7813 1127.186,567.7813 Q1127.5142,567.7813 1127.7642,568.0469 Q1128.0298,568.2969 1128.0298,568.6406 Q1128.0298,568.9844 1127.686,569.3906 Q1127.186,569.9688 1126.3892,570.2969 Q1125.311,570.75 1124.0142,570.75 Q1122.4985,570.75 1121.2954,570.125 Q1120.311,569.625 1119.6235,568.5625 Q1118.936,567.4844 1118.936,566.2031 L1118.936,565.0469 Q1118.936,563.7188 1119.5454,562.5781 Q1120.1704,561.4219 1121.2642,560.8125 Q1122.3579,560.1875 1123.5923,560.1875 Q1124.3267,560.1875 1124.9673,560.3594 Q1125.6235,560.5156 1126.1704,560.875 Z " fill="#000000"/><text fill="#000000" font-family="sans-serif" font-size="14" lengthAdjust="spacing" textLength="73.1445" x="1143.9048" y="570.7285">GameMode</text><line style="stroke:#181818;stroke-width:0.5;" x1="1035.5" x2="1292.9541" y1="581" y2="581"/><ellipse cx="1045.5" cy="595.3047" fill="none" rx="3" ry="3" style="stroke:#038048;stroke-width:1;"/><text fill="#000000" font-family="sans-serif" font-size="14" lengthAdjust="spacing" textLength="115.1924" x="1054.5" y="599.5332">Id : int &#171;get&#187; &#171;set&#187;</text><ellipse cx="1045.5" cy="612.9141" fill="none" rx="3" ry="3" style="stroke:#038048;stroke-width:1;"/><text fill="#000000" font-family="sans-serif" font-size="14" lengthAdjust="spacing" textLength="233.4541" x="1054.5" y="617.1426">GameModeName : string &#171;get&#187; &#171;set&#187;</text><line style="stroke:#181818;stroke-width:0.5;" x1="1035.5" x2="1292.9541" y1="624.2188" y2="624.2188"/></g><!--class Genre--><g class="entity" data-entity="Genre" data-source-line="114" data-uid="ent0052" id="entity_Genre"><rect fill="#F1F1F1" height="83.2188" rx="2.5" ry="2.5" style="stroke:#181818;stroke-width:0.5;" width="225.2197" x="1328.5" y="549"/><ellipse cx="1417.4048" cy="565" fill="#ADD1B2" rx="11" ry="11" style="stroke:#181818;stroke-width:1;"/><path d="M1420.1704,560.875 Q1420.3267,560.6563 1420.5142,560.5469 Q1420.7017,560.4375 1420.9204,560.4375 Q1421.2954,560.4375 1421.5298,560.7031 Q1421.7642,560.9531 1421.7642,561.5625 L1421.7642,563.0156 Q1421.7642,563.625 1421.5298,563.8906 Q1421.2954,564.1563 1420.9204,564.1563 Q1420.5767,564.1563 1420.3735,563.9531 Q1420.1704,563.7656 1420.061,563.25 Q1420.0142,562.8906 1419.8267,562.7031 Q1419.4985,562.3281 1418.8892,562.1094 Q1418.2798,561.8906 1417.6548,561.8906 Q1416.8892,561.8906 1416.2485,562.2188 Q1415.6235,562.5469 1415.1235,563.2969 Q1414.6392,564.0469 1414.6392,565.0781 L1414.6392,566.1719 Q1414.6392,567.4063 1415.5298,568.2344 Q1416.4204,569.0469 1418.0142,569.0469 Q1418.9517,569.0469 1419.6079,568.7969 Q1419.9985,568.6406 1420.4204,568.2031 Q1420.686,567.9375 1420.8267,567.8594 Q1420.9829,567.7813 1421.186,567.7813 Q1421.5142,567.7813 1421.7642,568.0469 Q1422.0298,568.2969 1422.0298,568.6406 Q1422.0298,568.9844 1421.686,569.3906 Q1421.186,569.9688 1420.3892,570.2969 Q1419.311,570.75 1418.0142,570.75 Q1416.4985,570.75 1415.2954,570.125 Q1414.311,569.625 1413.6235,568.5625 Q1412.936,567.4844 1412.936,566.2031 L1412.936,565.0469 Q1412.936,563.7188 1413.5454,562.5781 Q1414.1704,561.4219 1415.2642,560.8125 Q1416.3579,560.1875 1417.5923,560.1875 Q1418.3267,560.1875 1418.9673,560.3594 Q1419.6235,560.5156 1420.1704,560.875 Z " fill="#000000"/><text fill="#000000" font-family="sans-serif" font-size="14" lengthAdjust="spacing" textLength="38.9102" x="1437.9048" y="570.7285">Genre</text><line style="stroke:#181818;stroke-width:0.5;" x1="1329.5" x2="1552.7197" y1="581" y2="581"/><ellipse cx="1339.5" cy="595.3047" fill="none" rx="3" ry="3" style="stroke:#038048;stroke-width:1;"/><text fill="#000000" font-family="sans-serif" font-size="14" lengthAdjust="spacing" textLength="154.1025" x="1348.5" y="599.5332">GenreId : int &#171;get&#187; &#171;set&#187;</text><ellipse cx="1339.5" cy="612.9141" fill="none" rx="3" ry="3" style="stroke:#038048;stroke-width:1;"/><text fill="#000000" font-family="sans-serif" font-size="14" lengthAdjust="spacing" textLength="199.2197" x="1348.5" y="617.1426">GenreName : string &#171;get&#187; &#171;set&#187;</text><line style="stroke:#181818;stroke-width:0.5;" x1="1329.5" x2="1552.7197" y1="624.2188" y2="624.2188"/></g><!--class Videogame--><g class="entity" data-entity="Videogame" data-source-line="121" data-uid="ent0054" id="entity_Videogame"><rect fill="#F1F1F1" height="136.0469" rx="2.5" ry="2.5" style="stroke:#181818;stroke-width:0.5;" width="224.4336" x="1589" y="522.5"/><ellipse cx="1661.5532" cy="538.5" fill="#ADD1B2" rx="11" ry="11" style="stroke:#181818;stroke-width:1;"/><path d="M1664.3188,534.375 Q1664.4751,534.1563 1664.6626,534.0469 Q1664.8501,533.9375 1665.0688,533.9375 Q1665.4438,533.9375 1665.6782,534.2031 Q1665.9126,534.4531 1665.9126,535.0625 L1665.9126,536.5156 Q1665.9126,537.125 1665.6782,537.3906 Q1665.4438,537.6563 1665.0688,537.6563 Q1664.7251,537.6563 1664.522,537.4531 Q1664.3188,537.2656 1664.2095,536.75 Q1664.1626,536.3906 1663.9751,536.2031 Q1663.647,535.8281 1663.0376,535.6094 Q1662.4282,535.3906 1661.8032,535.3906 Q1661.0376,535.3906 1660.397,535.7188 Q1659.772,536.0469 1659.272,536.7969 Q1658.7876,537.5469 1658.7876,538.5781 L1658.7876,539.6719 Q1658.7876,540.9063 1659.6782,541.7344 Q1660.5688,542.5469 1662.1626,542.5469 Q1663.1001,542.5469 1663.7563,542.2969 Q1664.147,542.1406 1664.5688,541.7031 Q1664.8345,541.4375 1664.9751,541.3594 Q1665.1313,541.2813 1665.3345,541.2813 Q1665.6626,541.2813 1665.9126,541.5469 Q1666.1782,541.7969 1666.1782,542.1406 Q1666.1782,542.4844 1665.8345,542.8906 Q1665.3345,543.4688 1664.5376,543.7969 Q1663.4595,544.25 1662.1626,544.25 Q1660.647,544.25 1659.4438,543.625 Q1658.4595,543.125 1657.772,542.0625 Q1657.0845,540.9844 1657.0845,539.7031 L1657.0845,538.5469 Q1657.0845,537.2188 1657.6938,536.0781 Q1658.3188,534.9219 1659.4126,534.3125 Q1660.5063,533.6875 1661.7407,533.6875 Q1662.4751,533.6875 1663.1157,533.8594 Q1663.772,534.0156 1664.3188,534.375 Z " fill="#000000"/><text fill="#000000" font-family="sans-serif" font-size="14" lengthAdjust="spacing" textLength="70.8271" x="1682.0532" y="544.2285">Videogame</text><line style="stroke:#181818;stroke-width:0.5;" x1="1590" x2="1812.4336" y1="554.5" y2="554.5"/><ellipse cx="1600" cy="568.8047" fill="none" rx="3" ry="3" style="stroke:#038048;stroke-width:1;"/><text fill="#000000" font-family="sans-serif" font-size="14" lengthAdjust="spacing" textLength="153.3164" x="1609" y="573.0332">GameId : int &#171;get&#187; &#171;set&#187;</text><ellipse cx="1600" cy="586.4141" fill="none" rx="3" ry="3" style="stroke:#038048;stroke-width:1;"/><text fill="#000000" font-family="sans-serif" font-size="14" lengthAdjust="spacing" textLength="198.4336" x="1609" y="590.6426">GameName : string &#171;get&#187; &#171;set&#187;</text><ellipse cx="1600" cy="604.0234" fill="none" rx="3" ry="3" style="stroke:#038048;stroke-width:1;"/><text fill="#000000" font-family="sans-serif" font-size="14" lengthAdjust="spacing" textLength="172.7578" x="1609" y="608.252">MinPlayers : int &#171;get&#187; &#171;set&#187;</text><ellipse cx="1600" cy="621.6328" fill="none" rx="3" ry="3" style="stroke:#038048;stroke-width:1;"/><text fill="#000000" font-family="sans-serif" font-size="14" lengthAdjust="spacing" textLength="176.6475" x="1609" y="625.8613">MaxPlayers : int &#171;get&#187; &#171;set&#187;</text><ellipse cx="1600" cy="639.2422" fill="none" rx="3" ry="3" style="stroke:#038048;stroke-width:1;"/><text fill="#000000" font-family="sans-serif" font-size="14" lengthAdjust="spacing" textLength="192.2197" x="1609" y="643.4707">EarlyAccess : bool &#171;get&#187; &#171;set&#187;</text><line style="stroke:#181818;stroke-width:0.5;" x1="1590" x2="1812.4336" y1="650.5469" y2="650.5469"/></g><!--class TimeSpan--><g class="entity" data-entity="TimeSpan" data-source-line="148" data-uid="ent0064" id="entity_TimeSpan"><rect fill="#F1F1F1" height="48" rx="2.5" ry="2.5" style="stroke:#181818;stroke-width:0.5;" width="95.8066" x="2655" y="566.5"/><ellipse cx="2670" cy="582.5" fill="#ADD1B2" rx="11" ry="11" style="stroke:#181818;stroke-width:1;"/><path d="M2672.7656,578.375 Q2672.9219,578.1563 2673.1094,578.0469 Q2673.2969,577.9375 2673.5156,577.9375 Q2673.8906,577.9375 2674.125,578.2031 Q2674.3594,578.4531 2674.3594,579.0625 L2674.3594,580.5156 Q2674.3594,581.125 2674.125,581.3906 Q2673.8906,581.6563 2673.5156,581.6563 Q2673.1719,581.6563 2672.9688,581.4531 Q2672.7656,581.2656 2672.6563,580.75 Q2672.6094,580.3906 2672.4219,580.2031 Q2672.0938,579.8281 2671.4844,579.6094 Q2670.875,579.3906 2670.25,579.3906 Q2669.4844,579.3906 2668.8438,579.7188 Q2668.2188,580.0469 2667.7188,580.7969 Q2667.2344,581.5469 2667.2344,582.5781 L2667.2344,583.6719 Q2667.2344,584.9063 2668.125,585.7344 Q2669.0156,586.5469 2670.6094,586.5469 Q2671.5469,586.5469 2672.2031,586.2969 Q2672.5938,586.1406 2673.0156,585.7031 Q2673.2813,585.4375 2673.4219,585.3594 Q2673.5781,585.2813 2673.7813,585.2813 Q2674.1094,585.2813 2674.3594,585.5469 Q2674.625,585.7969 2674.625,586.1406 Q2674.625,586.4844 2674.2813,586.8906 Q2673.7813,587.4688 2672.9844,587.7969 Q2671.9063,588.25 2670.6094,588.25 Q2669.0938,588.25 2667.8906,587.625 Q2666.9063,587.125 2666.2188,586.0625 Q2665.5313,584.9844 2665.5313,583.7031 L2665.5313,582.5469 Q2665.5313,581.2188 2666.1406,580.0781 Q2666.7656,578.9219 2667.8594,578.3125 Q2668.9531,577.6875 2670.1875,577.6875 Q2670.9219,577.6875 2671.5625,577.8594 Q2672.2188,578.0156 2672.7656,578.375 Z " fill="#000000"/><text fill="#000000" font-family="sans-serif" font-size="14" lengthAdjust="spacing" textLength="63.8066" x="2684" y="588.2285">TimeSpan</text><line style="stroke:#181818;stroke-width:0.5;" x1="2656" x2="2749.8066" y1="598.5" y2="598.5"/><line style="stroke:#181818;stroke-width:0.5;" x1="2656" x2="2749.8066" y1="606.5" y2="606.5"/></g><!--reverse link DbContext to VideogameArchiveAPIDbContext--><g class="link" data-entity-1="DbContext" data-entity-2="VideogameArchiveAPIDbContext" data-source-line="11" data-uid="lnk7" id="link_DbContext_VideogameArchiveAPIDbContext"><path codeLine="11" d="M474,117.18 C474,156.77 474,219.46 474,264.43" fill="none" id="DbContext-backto-VideogameArchiveAPIDbContext" style="stroke:#181818;stroke-width:1;"/><polygon fill="none" points="474,99.18,468,117.18,480,117.18,474,99.18" style="stroke:#181818;stroke-width:1;"/></g><!--link VideogameArchiveAPIDbContext to DbSet`1--><g class="link" data-entity-1="VideogameArchiveAPIDbContext" data-entity-2="DbSet.1" data-source-line="12" data-uid="lnk8" id="link_VideogameArchiveAPIDbContext_DbSet.1"><path codeLine="12" d="M396.68,330.75 C334.2,395.64 338.7399,536.5549 421.0899,576.4349" fill="none" id="VideogameArchiveAPIDbContext-to-DbSet`1" style="stroke:#181818;stroke-width:1;"/><polygon fill="#181818" points="426.49,579.05,420.1333,571.5272,421.9899,576.8707,416.6464,578.7274,426.49,579.05" style="stroke:#181818;stroke-width:1;"/><text fill="#000000" font-family="sans-serif" font-size="13" lengthAdjust="spacing" textLength="153.2197" x="265.1759" y="592.3251">Videogames&lt;Videogame&gt;</text></g><!--link VideogameArchiveAPIDbContext to DbSet`1--><g class="link" data-entity-1="VideogameArchiveAPIDbContext" data-entity-2="DbSet.1" data-source-line="13" data-uid="lnk9" id="link_VideogameArchiveAPIDbContext_DbSet.1"><path codeLine="13" d="M413.91,330.75 C368.19,391.87 367.9047,518.7536 422.0147,567.0736" fill="none" id="VideogameArchiveAPIDbContext-to-DbSet`1-1" style="stroke:#181818;stroke-width:1;"/><polygon fill="#181818" points="426.49,571.07,422.4413,562.0918,422.7606,567.7396,417.1127,568.0589,426.49,571.07" style="stroke:#181818;stroke-width:1;"/><text fill="#000000" font-family="sans-serif" font-size="13" lengthAdjust="spacing" textLength="136.5762" x="282.0398" y="566.5636">Companies&lt;Company&gt;</text></g><!--link VideogameArchiveAPIDbContext to DbSet`1--><g class="link" data-entity-1="VideogameArchiveAPIDbContext" data-entity-2="DbSet.1" data-source-line="14" data-uid="lnk10" id="link_VideogameArchiveAPIDbContext_DbSet.1"><path codeLine="14" d="M431.15,330.75 C399.57,389.95 398.0028,509.6207 433.2028,561.3107" fill="none" id="VideogameArchiveAPIDbContext-to-DbSet`1-2" style="stroke:#181818;stroke-width:1;"/><polygon fill="#181818" points="436.58,566.27,434.8204,556.5796,433.7657,562.1373,428.208,561.0825,436.58,566.27" style="stroke:#181818;stroke-width:1;"/><text fill="#000000" font-family="sans-serif" font-size="13" lengthAdjust="spacing" textLength="140.1943" x="409.2925" y="540.7168">Developers&lt;Developer&gt;</text></g><!--link VideogameArchiveAPIDbContext to DbSet`1--><g class="link" data-entity-1="VideogameArchiveAPIDbContext" data-entity-2="DbSet.1" data-source-line="15" data-uid="lnk11" id="link_VideogameArchiveAPIDbContext_DbSet.1"><path codeLine="15" d="M448.39,330.75 C429.51,389.95 428.3389,509.0224 449.3689,560.7124" fill="none" id="VideogameArchiveAPIDbContext-to-DbSet`1-3" style="stroke:#181818;stroke-width:1;"/><polygon fill="#181818" points="451.63,566.27,451.9434,556.4261,449.7457,561.6386,444.5332,559.441,451.63,566.27" style="stroke:#181818;stroke-width:1;"/><text fill="#000000" font-family="sans-serif" font-size="13" lengthAdjust="spacing" textLength="130.0762" x="288.3941" y="573.6444">Publishers&lt;Publisher&gt;</text></g><!--link VideogameArchiveAPIDbContext to DbSet`1--><g class="link" data-entity-1="VideogameArchiveAPIDbContext" data-entity-2="DbSet.1" data-source-line="16" data-uid="lnk12" id="link_VideogameArchiveAPIDbContext_DbSet.1"><path codeLine="16" d="M465.63,330.75 C459.46,389.95 459.0184,508.6325 465.8984,560.3225" fill="none" id="VideogameArchiveAPIDbContext-to-DbSet`1-4" style="stroke:#181818;stroke-width:1;"/><polygon fill="#181818" points="466.69,566.27,469.4676,556.8209,466.0303,561.3137,461.5375,557.8764,466.69,566.27" style="stroke:#181818;stroke-width:1;"/><text fill="#000000" font-family="sans-serif" font-size="13" lengthAdjust="spacing" textLength="157.5234" x="513.7728" y="442.461">GameModes&lt;GameMode&gt;</text></g><!--link VideogameArchiveAPIDbContext to DbSet`1--><g class="link" data-entity-1="VideogameArchiveAPIDbContext" data-entity-2="DbSet.1" data-source-line="17" data-uid="lnk13" id="link_VideogameArchiveAPIDbContext_DbSet.1"><path codeLine="17" d="M482.87,330.75 C489.4,389.95 489.8568,508.6386 482.5768,560.3286" fill="none" id="VideogameArchiveAPIDbContext-to-DbSet`1-5" style="stroke:#181818;stroke-width:1;"/><polygon fill="#181818" points="481.74,566.27,486.9561,557.9158,482.4373,561.3189,479.0343,556.8001,481.74,566.27" style="stroke:#181818;stroke-width:1;"/><text fill="#000000" font-family="sans-serif" font-size="13" lengthAdjust="spacing" textLength="93.9453" x="378.9688" y="555.5512">Genres&lt;Genre&gt;</text></g><!--link VideogameArchiveAPIDbContext to DbSet`1--><g class="link" data-entity-1="VideogameArchiveAPIDbContext" data-entity-2="DbSet.1" data-source-line="18" data-uid="lnk14" id="link_VideogameArchiveAPIDbContext_DbSet.1"><path codeLine="18" d="M500.1,330.75 C519.34,389.95 520.5388,509.0378 499.0988,560.7278" fill="none" id="VideogameArchiveAPIDbContext-to-DbSet`1-6" style="stroke:#181818;stroke-width:1;"/><polygon fill="#181818" points="496.8,566.27,503.943,559.4893,498.7157,561.6515,496.5534,556.4242,496.8,566.27" style="stroke:#181818;stroke-width:1;"/><text fill="#000000" font-family="sans-serif" font-size="13" lengthAdjust="spacing" textLength="208.1143" x="268.0471" y="555.5512">VideogameUsers&lt;VideogameUser&gt;</text></g><!--link VideogameArchiveAPIDbContext to DbSet`1--><g class="link" data-entity-1="VideogameArchiveAPIDbContext" data-entity-2="DbSet.1" data-source-line="19" data-uid="lnk15" id="link_VideogameArchiveAPIDbContext_DbSet.1"><path codeLine="19" d="M517.34,330.75 C549.28,389.95 550.8533,509.6386 515.2533,561.3286" fill="none" id="VideogameArchiveAPIDbContext-to-DbSet`1-7" style="stroke:#181818;stroke-width:1;"/><polygon fill="#181818" points="511.85,566.27,520.2492,561.1267,514.6861,562.1521,513.6606,556.589,511.85,566.27" style="stroke:#181818;stroke-width:1;"/><text fill="#000000" font-family="sans-serif" font-size="13" lengthAdjust="spacing" textLength="162.5952" x="525.2924" y="437.8709">Consoles&lt;GamingConsole&gt;</text></g><!--link VideogameArchiveAPIDbContext to DbSet`1--><g class="link" data-entity-1="VideogameArchiveAPIDbContext" data-entity-2="DbSet.1" data-source-line="20" data-uid="lnk16" id="link_VideogameArchiveAPIDbContext_DbSet.1"><path codeLine="20" d="M534.58,330.75 C580.79,392.02 580.9461,519.4297 526.0261,567.4697" fill="none" id="VideogameArchiveAPIDbContext-to-DbSet`1-8" style="stroke:#181818;stroke-width:1;"/><polygon fill="#181818" points="521.51,571.42,530.9177,568.5052,525.2734,568.1281,525.6506,562.4838,521.51,571.42" style="stroke:#181818;stroke-width:1;"/><text fill="#000000" font-family="sans-serif" font-size="13" lengthAdjust="spacing" textLength="184.958" x="602.5837" y="439.3915">CustomFolders&lt;CustomFolder&gt;</text></g><!--link VideogameArchiveAPIDbContext to DbSet`1--><g class="link" data-entity-1="VideogameArchiveAPIDbContext" data-entity-2="DbSet.1" data-source-line="21" data-uid="lnk17" id="link_VideogameArchiveAPIDbContext_DbSet.1"><path codeLine="21" d="M551.82,330.75 C614.76,395.72 610.0849,536.9156 526.9449,576.5956" fill="none" id="VideogameArchiveAPIDbContext-to-DbSet`1-9" style="stroke:#181818;stroke-width:1;"/><polygon fill="#181818" points="521.53,579.18,531.3752,578.9134,526.0424,577.0264,527.9294,571.6935,521.53,579.18" style="stroke:#181818;stroke-width:1;"/><text fill="#000000" font-family="sans-serif" font-size="13" lengthAdjust="spacing" textLength="76.5781" x="472.5382" y="588.079">Users&lt;User&gt;</text></g><!--link CustomFolder to ICollection`1--><g class="link" data-entity-1="CustomFolder" data-entity-2="ICollection.1" data-source-line="53" data-uid="lnk22" id="link_CustomFolder_ICollection.1"><path codeLine="53" d="M830.92,632.24 C853.14,664.04 892.89,706.48 938,729 C1046.31,783.07 1408.7351,814.9245 1555.4351,825.3545" fill="none" id="CustomFolder-to-ICollection`1" style="stroke:#181818;stroke-width:1;"/><polygon fill="#181818" points="1561.42,825.78,1552.7263,821.1518,1556.4326,825.4254,1552.159,829.1317,1561.42,825.78" style="stroke:#181818;stroke-width:1;"/><text fill="#000000" font-family="sans-serif" font-size="13" lengthAdjust="spacing" textLength="153.2197" x="1400.069" y="822.5107">Videogames&lt;Videogame&gt;</text></g><!--link CustomFolder to ICollection`1--><g class="link" data-entity-1="CustomFolder" data-entity-2="ICollection.1" data-source-line="56" data-uid="lnk26" id="link_CustomFolder_ICollection.1"><path codeLine="56" d="M859.16,632.24 C888.14,664.04 927.89,706.48 973,729 C1076.93,780.88 1414.3206,812.2037 1555.2706,823.9037" fill="none" id="CustomFolder-to-ICollection`1-1" style="stroke:#181818;stroke-width:1;"/><polygon fill="#181818" points="1561.25,824.4,1552.6117,819.6692,1556.2671,823.9864,1551.95,827.6418,1561.25,824.4" style="stroke:#181818;stroke-width:1;"/><text fill="#000000" font-family="sans-serif" font-size="13" lengthAdjust="spacing" textLength="208.1143" x="1345.2692" y="837.9957">VideogamesUser&lt;VideogameUser&gt;</text></g><!--link CustomFolder to DateTimeOffset--><g class="link" data-entity-1="CustomFolder" data-entity-2="DateTimeOffset" data-source-line="54" data-uid="lnk24" id="link_CustomFolder_DateTimeOffset"><path codeLine="54" d="M805.12,632.14 C800.73,682.33 800.5436,760.0386 806.2236,800.3886" fill="none" id="CustomFolder-to-DateTimeOffset" style="stroke:#181818;stroke-width:1;"/><polygon fill="#181818" points="807.06,806.33,809.7664,796.8603,806.363,801.3788,801.8445,797.9754,807.06,806.33" style="stroke:#181818;stroke-width:1;"/><text fill="#000000" font-family="sans-serif" font-size="13" lengthAdjust="spacing" textLength="58.5317" x="739.6588" y="795.6266">CreatedAt</text></g><!--link CustomFolder to DateTimeOffset--><g class="link" data-entity-1="CustomFolder" data-entity-2="DateTimeOffset" data-source-line="55" data-uid="lnk25" id="link_CustomFolder_DateTimeOffset"><path codeLine="55" d="M825.46,632.14 C830.11,682.33 830.3154,760.0457 824.2954,800.3957" fill="none" id="CustomFolder-to-DateTimeOffset-1" style="stroke:#181818;stroke-width:1;"/><polygon fill="#181818" points="823.41,806.33,828.6943,798.0188,824.1478,801.3847,820.7818,796.8383,823.41,806.33" style="stroke:#181818;stroke-width:1;"/><text fill="#000000" font-family="sans-serif" font-size="13" lengthAdjust="spacing" textLength="61.4326" x="833.4326" y="795.6266">UpdatedAt</text></g><!--link GamingConsole to DateOnly--><g class="link" data-entity-1="GamingConsole" data-entity-2="DateOnly" data-source-line="63" data-uid="lnk29" id="link_GamingConsole_DateOnly"><path codeLine="63" d="M1932.16,632.14 C1889.15,682.33 1821.3444,761.4241 1786.7644,801.7741" fill="none" id="GamingConsole-to-DateOnly" style="stroke:#181818;stroke-width:1;"/><polygon fill="#181818" points="1782.86,806.33,1791.7538,802.0991,1786.1136,802.5335,1785.6793,796.8933,1782.86,806.33" style="stroke:#181818;stroke-width:1;"/><text fill="#000000" font-family="sans-serif" font-size="13" lengthAdjust="spacing" textLength="75.1563" x="1703.3138" y="795.6266">ReleaseDate</text></g><!--link GamingConsole to Publisher--><g class="link" data-entity-1="GamingConsole" data-entity-2="Publisher" data-source-line="64" data-uid="lnk31" id="link_GamingConsole_Publisher"><path codeLine="64" d="M1966.83,632.14 C1966.65,675.82 1966.386,738.8601 1966.196,782.6301" fill="none" id="GamingConsole-to-Publisher" style="stroke:#181818;stroke-width:1;"/><polygon fill="#181818" points="1966.17,788.63,1970.209,779.6474,1966.1917,783.63,1962.2091,779.6127,1966.17,788.63" style="stroke:#181818;stroke-width:1;"/><text fill="#000000" font-family="sans-serif" font-size="13" lengthAdjust="spacing" textLength="54.1963" x="1907.8916" y="778.1877">Publisher</text></g><!--link GamingConsole to ICollection`1--><g class="link" data-entity-1="GamingConsole" data-entity-2="ICollection.1" data-source-line="65" data-uid="lnk32" id="link_GamingConsole_ICollection.1"><path codeLine="65" d="M1933.58,632.09 C1907.62,661.73 1869.5,701.4 1830,729 C1777.84,765.44 1757.14,761 1700,789 C1688.76,794.51 1682.0469,797.8788 1670.8769,803.6688" fill="none" id="GamingConsole-to-ICollection`1" style="stroke:#181818;stroke-width:1;"/><polygon fill="#181818" points="1665.55,806.43,1675.3811,805.8394,1669.9891,804.129,1671.6995,798.7369,1665.55,806.43" style="stroke:#181818;stroke-width:1;"/><text fill="#000000" font-family="sans-serif" font-size="13" lengthAdjust="spacing" textLength="166.9497" x="1489.5442" y="795.7522">VideogameList&lt;Videogame&gt;</text></g><!--link Review to VideogameUser--><g class="link" data-entity-1="Review" data-entity-2="VideogameUser" data-source-line="73" data-uid="lnk35" id="link_Review_VideogameUser"><path codeLine="73" d="M1701,143.06 C1701,170.42 1701,196.01 1701,223.38" fill="none" id="Review-to-VideogameUser" style="stroke:#181818;stroke-width:1;"/><polygon fill="#181818" points="1701,229.38,1705,220.38,1701,224.38,1697,220.38,1701,229.38" style="stroke:#181818;stroke-width:1;"/><text fill="#000000" font-family="sans-serif" font-size="13" lengthAdjust="spacing" textLength="93.2153" x="1602.908" y="218.5662">VideogameUser</text></g><!--link User to DateTime--><g class="link" data-entity-1="User" data-entity-2="DateTime" data-source-line="80" data-uid="lnk38" id="link_User_DateTime"><path codeLine="80" d="M2504,632.14 C2501.93,682.33 2505.3365,760.0824 2512.8865,800.4324" fill="none" id="User-to-DateTime" style="stroke:#181818;stroke-width:1;"/><polygon fill="#181818" points="2513.99,806.33,2516.2665,796.7478,2513.0704,801.4153,2508.4029,798.2192,2513.99,806.33" style="stroke:#181818;stroke-width:1;"/><text fill="#000000" font-family="sans-serif" font-size="13" lengthAdjust="spacing" textLength="58.5317" x="2446.3587" y="795.6266">CreatedAt</text></g><!--link User to DateTime--><g class="link" data-entity-1="User" data-entity-2="DateTime" data-source-line="81" data-uid="lnk39" id="link_User_DateTime"><path codeLine="81" d="M2524.34,632.14 C2531.31,682.33 2535.1039,760.0115 2530.9539,800.3615" fill="none" id="User-to-DateTime-1" style="stroke:#181818;stroke-width:1;"/><polygon fill="#181818" points="2530.34,806.33,2535.2398,797.7865,2530.8516,801.3562,2527.2818,796.968,2530.34,806.33" style="stroke:#181818;stroke-width:1;"/><text fill="#000000" font-family="sans-serif" font-size="13" lengthAdjust="spacing" textLength="61.4326" x="2540.1326" y="795.6266">UpdatedAt</text></g><!--link User to ICollection`1--><g class="link" data-entity-1="User" data-entity-2="ICollection.1" data-source-line="82" data-uid="lnk40" id="link_User_ICollection.1"><path codeLine="82" d="M2487.32,632.3 C2465.35,664.58 2430.07,707.66 2387,729 C2112.37,865.08 1994.3,703.41 1700,789 C1686.08,793.05 1677.0349,796.8292 1664.5149,803.5592" fill="none" id="User-to-ICollection`1" style="stroke:#181818;stroke-width:1;"/><polygon fill="#181818" points="1659.23,806.4,1669.0512,805.662,1663.634,804.0326,1665.2634,798.6155,1659.23,806.4" style="stroke:#181818;stroke-width:1;"/><text fill="#000000" font-family="sans-serif" font-size="13" lengthAdjust="spacing" textLength="153.2197" x="1681.7867" y="794.3303">Videogames&lt;Videogame&gt;</text></g><!--link Company to List`1--><g class="link" data-entity-1="Company" data-entity-2="List.1" data-source-line="89" data-uid="lnk43" id="link_Company_List.1"><path codeLine="89" d="M2293.72,632.09 C2354.81,688.98 2446.2,794.2 2388,872 C2358.73,911.13 2221.3761,937.2215 2151.0361,948.3615" fill="none" id="Company-to-List`1" style="stroke:#181818;stroke-width:1;"/><polygon fill="#181818" points="2145.11,949.3,2154.6249,951.8429,2150.0484,948.5179,2153.3735,943.9414,2145.11,949.3" style="stroke:#181818;stroke-width:1;"/><text fill="#000000" font-family="sans-serif" font-size="13" lengthAdjust="spacing" textLength="136.5825" x="2152.677" y="945.7739">GameList&lt;Videogame&gt;</text></g><!--reverse link Company to Developer--><g class="link" data-entity-1="Company" data-entity-2="Developer" data-source-line="96" data-uid="lnk45" id="link_Company_Developer"><path codeLine="96" d="M2246.2442,650.1398 C2246.4242,693.8198 2246.64,744.86 2246.83,788.63" fill="none" id="Company-backto-Developer" style="stroke:#181818;stroke-width:1;"/><polygon fill="none" points="2246.17,632.14,2240.2442,650.1646,2252.2441,650.1151,2246.17,632.14" style="stroke:#181818;stroke-width:1;"/></g><!--link Developer to List`1--><g class="link" data-entity-1="Developer" data-entity-2="List.1" data-source-line="97" data-uid="lnk46" id="link_Developer_List.1"><path codeLine="97" d="M2200.44,872.28 C2177.82,892.09 2155.9844,911.2278 2136.8744,927.9578" fill="none" id="Developer-to-List`1" style="stroke:#181818;stroke-width:1;"/><polygon fill="#181818" points="2132.36,931.91,2141.7665,928.9913,2136.122,928.6165,2136.4969,922.9721,2132.36,931.91" style="stroke:#181818;stroke-width:1;"/><text fill="#000000" font-family="sans-serif" font-size="13" lengthAdjust="spacing" textLength="136.5825" x="1933.6353" y="921.1359">GameList&lt;Videogame&gt;</text></g><!--reverse link Company to Publisher--><g class="link" data-entity-1="Company" data-entity-2="Publisher" data-source-line="104" data-uid="lnk47" id="link_Company_Publisher"><path codeLine="104" d="M2194.3771,645.002 C2166.6071,673.232 2140.5,698.29 2104,729 C2079.16,749.89 2050.33,771.3 2025.46,788.96" fill="none" id="Company-backto-Publisher" style="stroke:#181818;stroke-width:1;"/><polygon fill="none" points="2207,632.17,2190.0997,640.7944,2198.6544,649.2097,2207,632.17" style="stroke:#181818;stroke-width:1;"/></g><!--link Publisher to List`1--><g class="link" data-entity-1="Publisher" data-entity-2="List.1" data-source-line="105" data-uid="lnk48" id="link_Publisher_List.1"><path codeLine="105" d="M2000.16,872.28 C2021.29,892.09 2043.3406,911.5006 2064.8906,928.2306" fill="none" id="Publisher-to-List`1" style="stroke:#181818;stroke-width:1;"/><polygon fill="#181818" points="2069.63,931.91,2064.9738,923.2313,2065.6805,928.8439,2060.0679,929.5505,2069.63,931.91" style="stroke:#181818;stroke-width:1;"/><text fill="#000000" font-family="sans-serif" font-size="13" lengthAdjust="spacing" textLength="136.5825" x="1922.2702" y="925.9145">GameList&lt;Videogame&gt;</text></g><!--link Publisher to List`1--><g class="link" data-entity-1="Publisher" data-entity-2="List.1" data-source-line="106" data-uid="lnk49" id="link_Publisher_List.1"><path codeLine="106" d="M2025.01,872.28 C2048.88,892.09 2070.1996,910.8761 2086.4496,927.6061" fill="none" id="Publisher-to-List`1-1" style="stroke:#181818;stroke-width:1;"/><polygon fill="#181818" points="2090.63,931.91,2087.2286,922.6671,2087.1463,928.3234,2081.49,928.2411,2090.63,931.91" style="stroke:#181818;stroke-width:1;"/><text fill="#000000" font-family="sans-serif" font-size="13" lengthAdjust="spacing" textLength="228.3442" x="2116.0038" y="921.2271">GamingConsolesList&lt;GamingConsole&gt;</text></g><!--link GameMode to ICollection`1--><g class="link" data-entity-1="GameMode" data-entity-2="ICollection.1" data-source-line="113" data-uid="lnk51" id="link_GameMode_ICollection.1"><path codeLine="113" d="M1198.32,632.13 C1225.98,662.59 1267.34,703.28 1311,729 C1391.18,776.23 1490.4038,802.9298 1555.5738,816.9298" fill="none" id="GameMode-to-ICollection`1" style="stroke:#181818;stroke-width:1;"/><polygon fill="#181818" points="1561.44,818.19,1553.4809,812.3889,1556.5515,817.1398,1551.8006,820.2105,1561.44,818.19" style="stroke:#181818;stroke-width:1;"/><text fill="#000000" font-family="sans-serif" font-size="13" lengthAdjust="spacing" textLength="166.9497" x="1386.7164" y="814.4582">VideogameList&lt;Videogame&gt;</text></g><!--link Genre to ICollection`1--><g class="link" data-entity-1="Genre" data-entity-2="ICollection.1" data-source-line="120" data-uid="lnk53" id="link_Genre_ICollection.1"><path codeLine="120" d="M1471.91,632.14 C1510.08,682.33 1570.0685,761.2038 1600.7485,801.5538" fill="none" id="Genre-to-ICollection`1" style="stroke:#181818;stroke-width:1;"/><polygon fill="#181818" points="1604.38,806.33,1602.1168,796.7447,1601.3537,802.3499,1595.7486,801.5868,1604.38,806.33" style="stroke:#181818;stroke-width:1;"/><text fill="#000000" font-family="sans-serif" font-size="13" lengthAdjust="spacing" textLength="166.9497" x="1412.6994" y="795.6266">VideogameList&lt;Videogame&gt;</text></g><!--link Videogame to DateOnly--><g class="link" data-entity-1="Videogame" data-entity-2="DateOnly" data-source-line="130" data-uid="lnk55" id="link_Videogame_DateOnly"><path codeLine="130" d="M1718.52,658.75 C1731.41,708.23 1746.6459,766.7442 1755.4659,800.5642" fill="none" id="Videogame-to-DateOnly" style="stroke:#181818;stroke-width:1;"/><polygon fill="#181818" points="1756.98,806.37,1758.5794,796.6519,1755.7182,801.5318,1750.8383,798.6707,1756.98,806.37" style="stroke:#181818;stroke-width:1;"/><text fill="#000000" font-family="sans-serif" font-size="13" lengthAdjust="spacing" textLength="75.1563" x="1759.6555" y="794.3561">ReleaseDate</text></g><!--link Videogame to ICollection`1--><g class="link" data-entity-1="Videogame" data-entity-2="ICollection.1" data-source-line="131" data-uid="lnk56" id="link_Videogame_ICollection.1"><path codeLine="131" d="M1630.87,658.75 C1604.89,708.23 1587.1305,766.7277 1595.5505,800.5477" fill="none" id="Videogame-to-ICollection`1" style="stroke:#181818;stroke-width:1;"/><polygon fill="#181818" points="1597,806.37,1598.7072,796.6702,1595.792,801.5181,1590.9442,798.603,1597,806.37" style="stroke:#181818;stroke-width:1;"/><text fill="#000000" font-family="sans-serif" font-size="13" lengthAdjust="spacing" textLength="208.1143" x="1625.6632" y="778.9482">GamingConsoles&lt;GamingConsole&gt;</text></g><!--link Videogame to ICollection`1--><g class="link" data-entity-1="Videogame" data-entity-2="ICollection.1" data-source-line="132" data-uid="lnk57" id="link_Videogame_ICollection.1"><path codeLine="132" d="M1654.77,658.75 C1633.57,708.23 1614.9882,766.5551 1613.5882,800.3751" fill="none" id="Videogame-to-ICollection`1-1" style="stroke:#181818;stroke-width:1;"/><polygon fill="#181818" points="1613.34,806.37,1617.7088,797.5431,1613.5468,801.3743,1609.7157,797.2123,1613.34,806.37" style="stroke:#181818;stroke-width:1;"/><text fill="#000000" font-family="sans-serif" font-size="13" lengthAdjust="spacing" textLength="140.1943" x="1413.3811" y="807.7">Developers&lt;Developer&gt;</text></g><!--link Videogame to ICollection`1--><g class="link" data-entity-1="Videogame" data-entity-2="ICollection.1" data-source-line="133" data-uid="lnk58" id="link_Videogame_ICollection.1"><path codeLine="133" d="M1678.68,658.75 C1662.25,708.23 1642.7893,766.8552 1631.5693,800.6752" fill="none" id="Videogame-to-ICollection`1-2" style="stroke:#181818;stroke-width:1;"/><polygon fill="#181818" points="1629.68,806.37,1636.3104,799.0873,1631.2544,801.6243,1628.7174,796.5683,1629.68,806.37" style="stroke:#181818;stroke-width:1;"/><text fill="#000000" font-family="sans-serif" font-size="13" lengthAdjust="spacing" textLength="130.0762" x="1648.2177" y="795.6141">Publishers&lt;Publisher&gt;</text></g><!--link Videogame to ICollection`1--><g class="link" data-entity-1="Videogame" data-entity-2="ICollection.1" data-source-line="134" data-uid="lnk59" id="link_Videogame_ICollection.1"><path codeLine="134" d="M1702.58,658.75 C1690.93,708.23 1670.2294,767.4554 1649.1894,801.2754" fill="none" id="Videogame-to-ICollection`1-3" style="stroke:#181818;stroke-width:1;"/><polygon fill="#181818" points="1646.02,806.37,1654.1705,800.8411,1648.6612,802.1245,1647.3778,796.6152,1646.02,806.37" style="stroke:#181818;stroke-width:1;"/><text fill="#000000" font-family="sans-serif" font-size="13" lengthAdjust="spacing" textLength="93.9453" x="1689.7047" y="795.6191">Genres&lt;Genre&gt;</text></g><!--link Videogame to ICollection`1--><g class="link" data-entity-1="Videogame" data-entity-2="ICollection.1" data-source-line="135" data-uid="lnk60" id="link_Videogame_ICollection.1"><path codeLine="135" d="M1726.49,658.75 C1719.62,708.23 1697.2642,768.1178 1666.4042,801.9378" fill="none" id="Videogame-to-ICollection`1-4" style="stroke:#181818;stroke-width:1;"/><polygon fill="#181818" points="1662.36,806.37,1671.3811,802.4179,1665.7302,802.6765,1665.4716,797.0256,1662.36,806.37" style="stroke:#181818;stroke-width:1;"/><text fill="#000000" font-family="sans-serif" font-size="13" lengthAdjust="spacing" textLength="157.5234" x="1677.8592" y="791.2302">GameModes&lt;GameMode&gt;</text></g><!--link VideogameUser to Videogame--><g class="link" data-entity-1="VideogameUser" data-entity-2="Videogame" data-source-line="145" data-uid="lnk61" id="link_VideogameUser_Videogame"><path codeLine="145" d="M1701,365.63 C1701,412.71 1701,469.4 1701,516.46" fill="none" id="VideogameUser-to-Videogame" style="stroke:#181818;stroke-width:1;"/><polygon fill="#181818" points="1701,522.46,1705,513.46,1701,517.46,1697,513.46,1701,522.46" style="stroke:#181818;stroke-width:1;"/><text fill="#000000" font-family="sans-serif" font-size="13" lengthAdjust="spacing" textLength="65.7681" x="1632.4636" y="511.6549">Videogame</text></g><!--link VideogameUser to User--><g class="link" data-entity-1="VideogameUser" data-entity-2="User" data-source-line="146" data-uid="lnk62" id="link_VideogameUser_User"><path codeLine="146" d="M1830.15,304.27 C1974.69,315.77 2211.59,350.03 2387,452 C2428,475.83 2459.6284,512.7577 2482.1084,544.0377" fill="none" id="VideogameUser-to-User" style="stroke:#181818;stroke-width:1;"/><polygon fill="#181818" points="2485.61,548.91,2483.6058,539.2672,2482.692,544.8498,2477.1095,543.936,2485.61,548.91" style="stroke:#181818;stroke-width:1;"/><text fill="#000000" font-family="sans-serif" font-size="13" lengthAdjust="spacing" textLength="27.4473" x="2452.0512" y="538.2028">User</text></g><!--link VideogameUser to GameStatus--><g class="link" data-entity-1="VideogameUser" data-entity-2="GameStatus" data-source-line="147" data-uid="lnk63" id="link_VideogameUser_GameStatus"><path codeLine="147" d="M1571.57,303.67 C1330.45,315.59 824.24,352.07 684,452 C677.97,456.3 676.5207,456.8988 671.3807,462.3388" fill="none" id="VideogameUser-to-GameStatus" style="stroke:#181818;stroke-width:1;"/><polygon fill="#181818" points="667.26,466.7,676.3485,462.9053,670.6939,463.0657,670.5336,457.4111,667.26,466.7" style="stroke:#181818;stroke-width:1;"/><text fill="#000000" font-family="sans-serif" font-size="13" lengthAdjust="spacing" textLength="72.2554" x="674.8358" y="453.2982">GameStatus</text></g><!--link VideogameUser to TimeSpan--><g class="link" data-entity-1="VideogameUser" data-entity-2="TimeSpan" data-source-line="148" data-uid="lnk65" id="link_VideogameUser_TimeSpan"><path codeLine="148" d="M1830.34,305.03 C2056.77,318.8 2512.85,357.69 2638,452 C2675.32,480.13 2690.8339,529.2273 2697.6339,560.4673" fill="none" id="VideogameUser-to-TimeSpan" style="stroke:#181818;stroke-width:1;"/><polygon fill="#181818" points="2698.91,566.33,2700.9043,556.6852,2697.8466,561.4444,2693.0873,558.3867,2698.91,566.33" style="stroke:#181818;stroke-width:1;"/><text fill="#000000" font-family="sans-serif" font-size="13" lengthAdjust="spacing" textLength="74.4263" x="2619.2358" y="555.6236">HoursPlayed</text></g><!--link VideogameUser to ICollection`1--><g class="link" data-entity-1="VideogameUser" data-entity-2="ICollection.1" data-source-line="149" data-uid="lnk66" id="link_VideogameUser_ICollection.1"><path codeLine="149" d="M1571.8,308.66 C1393.22,325.68 1085.16,366.84 1017,452 C940.07,548.11 937.4,635.09 1017,729 C1086.45,810.93 1416.1912,826.0206 1555.3612,828.7906" fill="none" id="VideogameUser-to-ICollection`1" style="stroke:#181818;stroke-width:1;"/><polygon fill="#181818" points="1561.36,828.91,1552.4414,824.7317,1556.361,828.8105,1552.2822,832.7301,1561.36,828.91" style="stroke:#181818;stroke-width:1;"/><text fill="#000000" font-family="sans-serif" font-size="13" lengthAdjust="spacing" textLength="184.958" x="1368.559" y="842.7859">CustomFolders&lt;CustomFolder&gt;</text></g><!--SRC=[nLVTRzem47_dhuZor6hbOQyLGwAmRaYZe0BTmpHf9Z71KeWpsz2Yhl_xpXzn4l9T7ieBllXtTxyxdy-s5oBEdHcAOyp6DDgIm7djlVKyzNd1QC3G7huuyFlal7A11F7U04-YAyG2Vii58r7mw_UrS-iSAV6jxXFnCGtG7e-OjoD7F5fC9nlm8F2Bi0RhG5Sq5eH6_DP-cUiFWpgjuRLbu4usIop-V7O7gw4AAlK_-DVlrphlrTBlzuUEQn4PGaCtzTh2n9ZkOnGHiA17fuxw4tp48OMLumCxx6XYSTY4XE-a2JliQE8RJCwe3r4aewu6SCIajlphg6eHQov3o8cT5oFYDDHHG4aRiQkH0nTqVqz3NzB9IXqDwNWAOU3ei7TacfUm4m_SRAGPuW8pxDyeITPIY4KYpgE0GZnQMA03JoOM8JebuqSSWwJ7Q-W2aIm4EoU8DRvY91bE68MkaO1GWFyUYB1krr6SiVz08tm3Mr3ndpz74DoEn8R-Jt06bISCNvWrMjyfiDr1-hIut27BOtdOS8yHrH7qbplA67tEyPmQa_UKxJ4BJyPqqY2oosDRaXQdFlGp4a6d60HO38Vmp-L_3lG0wm0mtG8BIDk6fcCQXjYJJ3FDAEUyjg7azKiKnmmZoFj8kCu41Ykon_Fj5bYKODUntngR4f9rMDnSPyHqkBdTOxDgv8Qq6jH5UStxLt4yuX0ZZcMyEkfv59xAWBO3keuTbk5i9dv0rTOkbgRwY8y4FzjaQB4X5qzKo2Ju58ZW2emsj28YhCbN5gfQ3BXi0ETMMl6iN0iJMh4Pktah9XDoQFDGRHtwJyf6mYug2UMqQgTaPalsHcQsvVP46o29FE6O7gCFzin6K7BZHb2ebb7BAins5kFI7ix5AZKQne2zEtm4ItKLimnwAPVMzErM_J3wQRD8kRIWNmIdZOOhjS9L91zvSj-oWJT4dE0lRR3QwRjQeRhaMRvAQY8jCPSnLZxVHTSYKieWj4XpFM6Dcv58tS4OhpKtGozjO5yHt716deUvn6qe3RlcAGssvjWy0-MBjbYmPrazqwvwmDHhLRrPwhNENnaDwD97JNsDv0wtuXbQSzOds0PSqt6iKNTOe1M65u5VKGVE5sUBGeuDNfvpt3uQAWYqBPsIyp9p4oZ3wSk2kYEKpAPl7JVpxYb3mcE1SVscSLLCIsZGPS3wDre-lly0]--></g></svg>